<svg width="84" height="84" viewBox="0 0 84 84" fill="none" xmlns="http://www.w3.org/2000/svg">
<path d="M48.875 13.125C40.8325 13.1019 33.0404 15.9214 26.875 21.0857V20.3438C26.874 19.5235 26.5478 18.7372 25.9678 18.1572C25.3878 17.5772 24.6015 17.251 23.7812 17.25H23.741L22.9263 14.8061C22.8094 14.4556 22.7499 14.0885 22.75 13.719V7.625C22.75 5.80164 22.0257 4.05295 20.7364 2.76364C19.447 1.47433 17.6984 0.75 15.875 0.75C14.0516 0.75 12.303 1.47433 11.0136 2.76364C9.72433 4.05295 9 5.80164 9 7.625V13.719C9.0001 14.0885 8.94056 14.4556 8.82366 14.8061L8.00897 17.25H7.96875C7.14853 17.251 6.36218 17.5772 5.78219 18.1572C5.20221 18.7372 4.87596 19.5235 4.875 20.3438V28.25C4.51033 28.25 4.16059 28.3949 3.90273 28.6527C3.64487 28.9106 3.5 29.2603 3.5 29.625V35.125C3.5 35.4897 3.64487 35.8394 3.90273 36.0973C4.16059 36.3551 4.51033 36.5 4.875 36.5H6.25V37.875C6.24948 38.0884 6.19956 38.2987 6.10413 38.4896C6.00871 38.6804 5.87039 38.8466 5.7 38.975L3.5 40.625C2.64803 41.2671 1.95638 42.0979 1.47926 43.0521C1.00214 44.0064 0.752534 45.0581 0.75 46.125V77.4062C0.751729 78.9556 1.36796 80.441 2.4635 81.5365C3.55905 82.632 5.04442 83.2483 6.59375 83.25H25.1562C26.7056 83.2483 28.191 82.632 29.2865 81.5365C30.382 80.441 30.9983 78.9556 31 77.4062V76.8679C36.3812 80.1566 42.5685 81.8898 48.875 81.875C67.8294 81.875 83.25 66.4544 83.25 47.5C83.25 28.5456 67.8294 13.125 48.875 13.125ZM11.4324 15.6756C11.6429 15.0448 11.7502 14.3841 11.75 13.719V7.625C11.75 6.53098 12.1846 5.48177 12.9582 4.70818C13.7318 3.9346 14.781 3.5 15.875 3.5C16.969 3.5 18.0182 3.9346 18.7918 4.70818C19.5654 5.48177 20 6.53098 20 7.625V13.719C19.9998 14.3841 20.1071 15.0448 20.3176 15.6756L20.8422 17.25H10.9078L11.4324 15.6756ZM7.625 20.3438C7.625 20.2526 7.66122 20.1651 7.72568 20.1007C7.79015 20.0362 7.87758 20 7.96875 20H23.7812C23.8724 20 23.9599 20.0362 24.0243 20.1007C24.0888 20.1651 24.125 20.2526 24.125 20.3438V28.25H21.375V22.75H18.625V28.25H17.25V22.75H14.5V28.25H13.125V22.75H10.375V28.25H7.625V20.3438ZM6.25 31H25.5V33.75H6.25V31ZM28.25 77.4062C28.249 78.2265 27.9228 79.0128 27.3428 79.5928C26.7628 80.1728 25.9765 80.499 25.1562 80.5H6.59375C5.77353 80.499 4.98718 80.1728 4.40719 79.5928C3.82721 79.0128 3.50096 78.2265 3.5 77.4062V70.875H28.25V77.4062ZM28.25 68.125H3.5V51.625H28.25V68.125ZM28.25 48.875H3.5V46.125H7.625C7.98967 46.125 8.33941 45.9801 8.59727 45.7223C8.85513 45.4644 9 45.1147 9 44.75C9 44.3853 8.85513 44.0356 8.59727 43.7777C8.33941 43.5199 7.98967 43.375 7.625 43.375H4.55394C4.73387 43.1723 4.93354 42.9881 5.15 42.825L7.35 41.175C7.86117 40.7897 8.27615 40.2912 8.56242 39.7187C8.84869 39.1462 8.99846 38.5151 9 37.875V36.5H22.75V37.875C22.7515 38.5151 22.9013 39.1462 23.1876 39.7187C23.4739 40.2912 23.8888 40.7897 24.4 41.175L26.6 42.825C27.1112 43.2103 27.5261 43.7088 27.8124 44.2813C28.0987 44.8538 28.2485 45.4849 28.25 46.125V48.875ZM48.875 79.125C42.4927 79.1405 36.2574 77.2103 31 73.5918V58.2126C33.4811 59.0747 36.0644 59.6085 38.684 59.8004C36.8556 61.3009 35.3647 63.1704 34.3086 65.2868L33.8846 66.135C33.7711 66.3619 33.7227 66.6157 33.7445 66.8684C33.7664 67.1211 33.8577 67.3629 34.0084 67.5669C34.1591 67.7709 34.3633 67.9293 34.5984 68.0245C34.8335 68.1197 35.0903 68.148 35.3405 68.1063L37.9285 67.6749C41.906 67.0114 45.5136 64.943 48.0955 61.8455L48.8645 60.9228V72.25C48.8645 72.6147 49.0094 72.9644 49.2672 73.2223C49.5251 73.4801 49.8748 73.625 50.2395 73.625C50.6042 73.625 50.9539 73.4801 51.2118 73.2223C51.4697 72.9644 51.6145 72.6147 51.6145 72.25V60.9102L52.394 61.8455C54.976 64.9429 58.5834 67.0113 62.5609 67.6749L65.149 68.1063C65.3992 68.148 65.656 68.1197 65.8911 68.0245C66.1263 67.9293 66.3304 67.7709 66.4811 67.5669C66.6318 67.3629 66.7232 67.1211 66.745 66.8684C66.7669 66.6157 66.7184 66.3619 66.6049 66.135L66.1807 65.2868C65.1248 63.1708 63.6342 61.3015 61.8064 59.8011C65.2628 59.5488 68.6496 58.7007 71.817 57.2943L75.5584 55.6316C75.8151 55.5176 76.0307 55.3277 76.1762 55.0875C76.3218 54.8472 76.3902 54.5682 76.3725 54.2879C76.3547 54.0076 76.2515 53.7395 76.0768 53.5196C75.902 53.2997 75.6642 53.1386 75.3951 53.0579L74.0698 52.6604C69.6495 51.3429 64.986 51.056 60.4375 51.8216C64.5125 47.5524 67.6312 42.464 69.5859 36.8953L70.7978 33.4463C70.8911 33.1811 70.9007 32.8936 70.8256 32.6227C70.7504 32.3518 70.594 32.1104 70.3774 31.9312C70.1609 31.7519 69.8945 31.6433 69.6144 31.62C69.3342 31.5968 69.0536 31.66 68.8104 31.8011L68.3947 32.0417C63.4039 34.9341 59.0711 38.8353 55.6728 43.4963C56.1077 36.569 54.6514 29.6537 51.4597 23.4901C51.3439 23.2641 51.1672 23.0751 50.9496 22.9443C50.7319 22.8135 50.482 22.7462 50.2282 22.75C49.9748 22.7521 49.7269 22.8242 49.5119 22.9583C49.2968 23.0924 49.1231 23.2834 49.0098 23.51C45.9065 29.7277 44.4837 36.649 44.8827 43.5866C41.4751 38.8857 37.1187 34.9525 32.0952 32.0414L31.6796 31.8008C31.4364 31.6596 31.1559 31.5964 30.8757 31.6197C30.5955 31.643 30.3292 31.7515 30.1126 31.9308C29.896 32.1101 29.7396 32.3515 29.6645 32.6224C29.5893 32.8933 29.599 33.1807 29.6922 33.446L30.9041 36.895C32.8573 42.4602 35.973 47.5458 40.0439 51.8137C37.0538 51.3091 34.0046 51.2606 31 51.6699V46.125C30.9975 45.0581 30.7479 44.0064 30.2707 43.0521C29.7936 42.0979 29.102 41.2671 28.25 40.625L26.05 38.975C25.8796 38.8466 25.7413 38.6804 25.6459 38.4896C25.5504 38.2987 25.5005 38.0884 25.5 37.875V36.5H26.875C27.2397 36.5 27.5894 36.3551 27.8473 36.0973C28.1051 35.8394 28.25 35.4897 28.25 35.125V29.625C28.25 29.2603 28.1051 28.9106 27.8473 28.6527C27.5894 28.3949 27.2397 28.25 26.875 28.25V24.7838C32.7605 19.0505 40.6586 15.8522 48.875 15.875C66.3131 15.875 80.5 30.0619 80.5 47.5C80.5 64.9381 66.3131 79.125 48.875 79.125ZM45.9892 53.5271C40.3342 49.0387 36.0437 43.0616 33.6 36.268C38.8567 39.9698 43.1095 44.9217 45.975 50.6773C46.1255 50.9788 46.3816 51.2145 46.6945 51.3396C47.0074 51.4648 47.3554 51.4706 47.6723 51.3561C47.9893 51.2416 48.2531 51.0147 48.4138 50.7184C48.5744 50.4222 48.6207 50.0773 48.5438 49.7492C46.8013 42.3052 47.4016 34.5046 50.2625 27.4149C53.1784 34.4634 53.7811 42.2557 51.9837 49.6687C51.9052 49.9968 51.95 50.3424 52.1097 50.6395C52.2694 50.9367 52.5328 51.1648 52.8497 51.2804C53.1667 51.3961 53.5151 51.3911 53.8286 51.2666C54.1421 51.142 54.3989 50.9065 54.5501 50.6049C57.4157 44.8801 61.655 39.9545 66.8892 36.2683C64.4452 43.0617 60.1547 49.0387 54.5 53.5273C54.2434 53.7312 54.0682 54.0199 54.0057 54.3415C53.9432 54.6631 53.9976 54.9965 54.1591 55.2816C54.3206 55.5666 54.5786 55.7847 54.8866 55.8964C55.1946 56.0081 55.5323 56.0062 55.839 55.8909C60.6464 54.0944 65.8609 53.6805 70.8915 54.6962L70.6999 54.7822C66.308 56.7319 61.4796 57.4886 56.7018 56.976C56.369 56.9402 56.0345 57.027 55.7611 57.2202C55.4877 57.4134 55.2942 57.6997 55.2169 58.0254C55.1395 58.3512 55.1837 58.6939 55.341 58.9894C55.4984 59.2849 55.7582 59.5128 56.0716 59.6304C58.8071 60.6534 61.1555 62.5039 62.79 64.9242C59.5477 64.3297 56.6164 62.6176 54.5056 60.0857L51.9 56.9579L51.2876 56.2361C51.1586 56.0839 50.9979 55.9616 50.8169 55.8777C50.6358 55.7938 50.4387 55.7504 50.2392 55.7503H50.2328C50.0322 55.7512 49.8343 55.7959 49.6528 55.8813C49.4713 55.9668 49.3107 56.0909 49.1823 56.245L45.982 60.0854C43.8713 62.6174 40.9399 64.3294 37.6976 64.9238C39.3321 62.5035 41.6806 60.6531 44.416 59.6301C44.7295 59.5125 44.9892 59.2845 45.1466 58.989C45.3039 58.6936 45.3481 58.3508 45.2707 58.0251C45.1934 57.6994 44.9999 57.4131 44.7265 57.2199C44.4531 57.0266 44.1186 56.9398 43.7858 56.9756C39.4495 57.4394 35.0651 56.8598 30.9983 55.2849V54.4491C35.5969 53.7583 40.2957 54.2548 44.6484 55.8913C44.9551 56.0065 45.2929 56.0084 45.6009 55.8967C45.9089 55.785 46.1669 55.567 46.3284 55.2819C46.4899 54.9968 46.5443 54.6635 46.4818 54.3419C46.4193 54.0202 46.244 53.7315 45.9875 53.5277L45.9892 53.5271Z" fill="#C2A74E" fill-opacity="0.1"/>
<path d="M15.875 43.375H13.125C12.7603 43.375 12.4106 43.5199 12.1527 43.7777C11.8949 44.0356 11.75 44.3853 11.75 44.75C11.75 45.1147 11.8949 45.4644 12.1527 45.7223C12.4106 45.9801 12.7603 46.125 13.125 46.125H15.875C16.2397 46.125 16.5894 45.9801 16.8473 45.7223C17.1051 45.4644 17.25 45.1147 17.25 44.75C17.25 44.3853 17.1051 44.0356 16.8473 43.7777C16.5894 43.5199 16.2397 43.375 15.875 43.375Z" fill="#C2A74E" fill-opacity="0.1"/>
<path d="M15.875 65.375C16.7049 65.375 17.5184 65.1439 18.2244 64.7076C18.9303 64.2713 19.5008 63.647 19.872 62.9047C20.2431 62.1625 20.4002 61.3315 20.3257 60.5049C20.2512 59.6784 19.9479 58.8889 19.45 58.225L16.975 54.925C16.8469 54.7542 16.6808 54.6156 16.4899 54.5202C16.299 54.4247 16.0885 54.375 15.875 54.375C15.6615 54.375 15.451 54.4247 15.2601 54.5202C15.0692 54.6156 14.9031 54.7542 14.775 54.925L12.3 58.225C11.8021 58.8889 11.4988 59.6784 11.4243 60.5049C11.3498 61.3315 11.5069 62.1625 11.878 62.9047C12.2492 63.647 12.8197 64.2713 13.5256 64.7076C14.2316 65.1439 15.0451 65.375 15.875 65.375ZM14.5 59.875L15.875 58.0416L17.25 59.875C17.4415 60.1304 17.5581 60.434 17.5868 60.7519C17.6155 61.0698 17.555 61.3894 17.4123 61.6749C17.2696 61.9604 17.0501 62.2005 16.7786 62.3683C16.5071 62.5361 16.1942 62.625 15.875 62.625C15.5558 62.625 15.2429 62.5361 14.9714 62.3683C14.6999 62.2005 14.4805 61.9604 14.3377 61.6749C14.195 61.3894 14.1345 61.0698 14.1632 60.7519C14.1919 60.434 14.3085 60.1304 14.5 59.875Z" fill="#C2A74E" fill-opacity="0.1"/>
</svg>
