<svg width="60" height="60" viewBox="0 0 60 60" fill="none" xmlns="http://www.w3.org/2000/svg">
<path d="M24.6096 56.3625H5.52213C5.269 56.3625 5.02525 56.2594 4.84713 56.0719C4.669 55.8844 4.57525 55.6406 4.58463 55.3781L5.55025 33.6188C5.569 33.1031 6.02838 32.7 6.52525 32.7281C7.04088 32.7469 7.444 33.1875 7.41588 33.7031L6.5065 54.4875H23.6252L22.6596 33.4406C22.6315 32.925 23.0346 32.4844 23.5502 32.4656C24.0659 32.4281 24.5065 32.8406 24.5252 33.3563L25.5377 55.3875C25.5471 55.6406 25.4534 55.8937 25.2752 56.0812C25.1065 56.2594 24.8627 56.3625 24.6096 56.3625Z" fill="#C2A74E"/>
<path d="M15.0664 29.0062C14.5508 29.0062 14.1289 28.5844 14.1289 28.0687V23.1562C14.1289 22.6406 14.5508 22.2188 15.0664 22.2188C15.582 22.2188 16.0039 22.6406 16.0039 23.1562V28.0687C16.0039 28.5937 15.582 29.0062 15.0664 29.0062Z" fill="#C2A74E"/>
<path d="M15.0656 29.0063C11.4656 29.0063 8.53125 25.1063 8.53125 20.3156C8.53125 15.7219 14.1375 9.62814 14.3812 9.37501C14.7375 8.99064 15.4031 8.99064 15.75 9.37501C15.9844 9.62814 21.6 15.7219 21.6 20.3156C21.6 25.1063 18.6656 29.0063 15.0656 29.0063ZM15.0656 11.4375C13.3312 13.5 10.4062 17.5313 10.4062 20.325C10.4062 24.0844 12.4969 27.1406 15.0656 27.1406C17.6344 27.1406 19.725 24.0844 19.725 20.325C19.725 17.5313 16.8094 13.4906 15.0656 11.4375Z" fill="#C2A74E"/>
<path d="M21.8816 34.8938H7.77227C5.63477 34.8938 3.90039 33.15 3.90039 31.0125C3.90039 29.9906 4.31289 28.9969 5.02539 28.275C5.75664 27.5437 6.73164 27.1406 7.77227 27.1406H21.8816C24.0191 27.1406 25.7535 28.875 25.7535 31.0125C25.7535 32.0625 25.3504 33.0375 24.6098 33.7687C23.9066 34.4812 22.9129 34.8938 21.8816 34.8938ZM7.77227 29.0156C7.22852 29.0156 6.74102 29.2219 6.35664 29.6062C5.99102 29.9719 5.77539 30.4875 5.77539 31.0125C5.77539 32.1188 6.67539 33.0188 7.77227 33.0188H21.8816C22.4066 33.0188 22.9223 32.8031 23.2879 32.4375C23.6816 32.0531 23.8879 31.5563 23.8879 31.0125C23.8879 29.9063 22.9879 29.0156 21.891 29.0156H7.77227Z" fill="#C2A74E"/>
<path d="M33.6184 56.3625H21.459C20.9434 56.3625 20.5215 55.9407 20.5215 55.425C20.5215 54.9094 20.9434 54.4875 21.459 54.4875H33.609C34.1246 54.4875 34.5465 54.9094 34.5465 55.425C34.5465 55.9407 34.134 56.3625 33.6184 56.3625Z" fill="#C2A74E"/>
<path d="M42.6659 34.1907C42.169 34.1907 41.7565 33.7969 41.7284 33.3L41.569 29.8219C41.5503 29.3063 41.944 28.8657 42.4596 28.8469C42.9753 28.8094 43.4159 29.2219 43.4346 29.7375L43.594 33.2157C43.6128 33.7313 43.219 34.1719 42.7034 34.1907C42.694 34.1907 42.6846 34.1907 42.6659 34.1907Z" fill="#C2A74E"/>
<path d="M32.5781 24.5063C32.0625 24.5063 31.6406 24.0844 31.6406 23.5688V17.85C31.6406 17.3344 32.0625 16.9125 32.5781 16.9125C33.0938 16.9125 33.5156 17.3344 33.5156 17.85V23.5688C33.5156 24.0938 33.0938 24.5063 32.5781 24.5063Z" fill="#C2A74E"/>
<path d="M32.5781 24.5063C28.4719 24.5063 25.125 20.0344 25.125 14.5406C25.125 9.25315 31.6125 2.20315 31.8938 1.90315C32.25 1.51877 32.9156 1.51877 33.2625 1.90315C33.5344 2.20315 40.0313 9.24377 40.0313 14.5406C40.0313 20.0438 36.6844 24.5063 32.5781 24.5063ZM32.5781 3.97502C30.9469 5.88752 27 10.9125 27 14.55C27 19.0125 29.5031 22.6406 32.5781 22.6406C35.6531 22.6406 38.1563 19.0125 38.1563 14.55C38.1563 10.9125 34.2 5.88752 32.5781 3.97502Z" fill="#C2A74E"/>
<path d="M40.509 31.3687H24.7496C24.234 31.3687 23.8121 30.9469 23.8121 30.4312C23.8121 29.9156 24.234 29.4937 24.7496 29.4937H40.4996C41.0246 29.4937 41.5309 29.325 41.934 29.025C42.0746 28.9312 42.1496 28.8656 42.2246 28.7813C42.7309 28.2938 42.984 27.6656 42.984 26.9906C42.984 25.6219 41.8684 24.5156 40.4996 24.5156H24.084C23.409 24.5156 22.7902 24.7781 22.3309 25.2469C21.8621 25.7063 21.5996 26.3438 21.5996 26.9906C21.5996 27.2531 21.6465 27.5156 21.7309 27.7781C21.8902 28.2656 21.6277 28.8 21.1402 28.9594C20.6527 29.1281 20.1184 28.8563 19.9496 28.3688C19.7996 27.9188 19.7246 27.4594 19.7246 26.9906C19.7246 25.8375 20.1934 24.7125 21.009 23.9156C21.8152 23.0906 22.9121 22.6406 24.0934 22.6406H40.509C42.9184 22.6406 44.8684 24.5906 44.8684 26.9906C44.8684 28.1813 44.409 29.2781 43.5746 30.0937C43.434 30.2437 43.2465 30.4031 43.0309 30.5531C42.3465 31.0688 41.4371 31.3687 40.509 31.3687Z" fill="#C2A74E"/>
<path d="M40.1427 58.3875C39.5427 58.3875 38.9895 58.2281 38.5114 57.9281C36.6083 56.7094 36.5145 53.6344 38.2958 50.7656C38.952 49.7156 39.7302 48.8156 40.602 48.1125C41.3333 47.5219 42.1114 47.0719 42.8989 46.7812C43.3864 46.6031 43.9208 46.8469 44.0989 47.3344C44.277 47.8219 44.0333 48.3562 43.5458 48.5437C42.9458 48.7687 42.3458 49.1156 41.7739 49.575C41.0614 50.1562 40.4239 50.8875 39.8802 51.7594C38.6145 53.7937 38.6708 55.8187 39.5145 56.3531C39.852 56.5687 40.2833 56.5312 40.5739 56.4656C41.5958 56.2312 42.7114 55.3125 43.4802 54.0656C44.2958 52.7625 44.6989 51.3094 44.6989 49.7437C44.6989 49.4812 44.6895 49.2562 44.6614 49.0594C44.6052 48.5437 44.9708 48.0844 45.4864 48.0281C46.002 47.9719 46.4614 48.3375 46.5177 48.8531C46.5458 49.125 46.5739 49.4344 46.5645 49.7531C46.5645 51.6562 46.0583 53.4375 45.0645 55.05C44.0145 56.7281 42.4864 57.9375 40.977 58.2844C40.7052 58.3594 40.4145 58.3875 40.1427 58.3875Z" fill="#C2A74E"/>
<path d="M43.3405 47.3719C43.1155 47.3719 42.8999 47.2969 42.7218 47.1375C42.1687 46.65 41.6343 46.0406 41.1749 45.3562C41.128 45.3094 41.0905 45.2531 41.053 45.1875C40.4343 44.2406 39.9749 43.1906 39.703 42.0844C39.2437 40.1531 39.4499 38.2125 40.2655 36.8906C40.7624 36.0844 41.4562 35.5594 42.2624 35.3719C44.428 34.8656 46.7343 37.0031 47.5218 40.2375C47.7937 41.3531 47.8968 42.4312 47.8124 43.4437C47.7655 44.3906 47.5499 45.3375 47.1843 46.2375C46.9874 46.7156 46.4343 46.9406 45.9562 46.7437C45.478 46.5469 45.253 45.9937 45.4499 45.5156C45.7405 44.8125 45.9093 44.0719 45.9468 43.3125C46.0124 42.4781 45.9374 41.5969 45.703 40.6781C45.1312 38.3437 43.6593 36.9656 42.6843 37.1906C42.2905 37.2844 42.0187 37.6125 41.8593 37.875C41.3062 38.7656 41.1843 40.2094 41.5218 41.6344C41.7374 42.5156 42.103 43.3594 42.5999 44.1187C42.628 44.1562 42.6562 44.1844 42.6749 44.2219C43.0593 44.8031 43.4999 45.3187 43.9593 45.7219C44.3437 46.0687 44.3812 46.6594 44.0437 47.0437C43.8562 47.2594 43.603 47.3719 43.3405 47.3719Z" fill="#C2A74E"/>
<path d="M39.6655 49.9031C38.3811 49.9031 37.1155 49.6593 35.9343 49.1718C34.1061 48.4406 32.653 47.1468 32.0436 45.7125C31.678 44.8406 31.6499 43.9687 31.9686 43.2C32.803 41.1562 35.8874 40.5093 38.9718 41.7375C40.3686 42.2906 41.5593 43.0687 42.4968 44.0343C42.5155 44.0531 42.5343 44.0812 42.553 44.1C42.5624 44.1093 42.5718 44.1187 42.5718 44.1281C42.8436 44.4281 42.8999 44.8781 42.6749 45.2437C42.403 45.6843 41.8311 45.825 41.3811 45.5531C41.3249 45.5156 41.2593 45.4687 41.203 45.4125C41.1561 45.3656 41.1093 45.3187 41.0718 45.2718C40.3311 44.5218 39.3843 43.9218 38.2593 43.4718C36.028 42.5812 34.0499 42.9937 33.6749 43.9125C33.5155 44.2875 33.628 44.7 33.7405 44.9812C34.1436 45.9468 35.2405 46.8843 36.5999 47.4281C37.9968 48 39.478 48.1687 40.9874 47.9062C41.503 47.8218 41.9811 48.1687 42.0655 48.675C42.1499 49.1812 41.803 49.6687 41.2968 49.7531C40.7905 49.8562 40.228 49.9031 39.6655 49.9031Z" fill="#C2A74E"/>
<path d="M52.4539 55.4718C51.1883 55.4718 49.782 55.0406 48.4976 54.2531C46.8851 53.25 45.6476 51.8718 44.8039 50.1562C44.5789 49.6875 44.7664 49.125 45.2351 48.9C45.6945 48.675 46.257 48.8625 46.4914 49.3312C47.1758 50.7281 48.1883 51.8531 49.4914 52.6687C50.7383 53.4468 52.1445 53.775 53.1664 53.5312C53.4664 53.4562 53.8601 53.3062 54.0664 52.9593C54.5914 52.1062 53.7476 50.2781 51.7133 49.0031C50.8695 48.4781 49.9976 48.1031 49.1258 47.9062C49.0883 47.9062 49.0601 47.8968 49.032 47.8875C48.1414 47.6812 47.4008 47.7 46.932 47.7468C46.4164 47.8031 45.957 47.4281 45.9008 46.9125C45.8445 46.3968 46.2195 45.9375 46.7351 45.8812C47.5789 45.7968 48.4883 45.8437 49.3695 46.0406C49.3976 46.0406 49.4351 46.05 49.4633 46.0593C50.5695 46.3031 51.657 46.7625 52.707 47.4187C55.5758 49.2187 56.8508 52.0218 55.6695 53.9437C55.2383 54.6468 54.5258 55.1437 53.607 55.3593C53.2414 55.4343 52.857 55.4718 52.4539 55.4718Z" fill="#C2A74E"/>
<path d="M49.2383 47.8969C48.7977 47.8969 48.4133 47.5875 48.3195 47.1469C48.2164 46.6406 48.5445 46.1437 49.0508 46.0406H49.0602C50.4383 45.6187 51.6852 44.8312 52.6789 43.6969C53.6633 42.6094 54.2352 41.2875 54.1789 40.2375C54.1602 39.9281 54.0758 39.5062 53.7758 39.2344C53.0258 38.5781 51.0758 39.0844 49.4727 40.8656C48.6758 41.7562 48.0945 42.7031 47.7664 43.6687C47.5977 44.1562 47.0633 44.4187 46.5758 44.25C46.0883 44.0812 45.8258 43.5469 45.9945 43.0594C46.407 41.85 47.1102 40.6969 48.0758 39.6187C50.2883 37.1531 53.3352 36.3656 55.0133 37.8281C55.6414 38.3812 55.9977 39.1781 56.0539 40.1344C56.1383 41.6812 55.407 43.4812 54.0852 44.9437C52.857 46.3312 51.3195 47.3156 49.5195 47.85C49.4914 47.8594 49.4445 47.8687 49.4164 47.8781C49.3602 47.8875 49.3039 47.8969 49.2383 47.8969Z" fill="#C2A74E"/>
<path d="M45.0277 49.9875C43.7621 49.9875 42.609 49.1156 42.309 47.8313C41.9621 46.3313 42.8902 44.8312 44.3902 44.475C45.8902 44.1281 47.3902 45.0563 47.7465 46.5563C48.0934 48.0563 47.1652 49.5563 45.6652 49.9125C45.4496 49.9594 45.234 49.9875 45.0277 49.9875ZM45.0277 46.275C44.9621 46.275 44.8871 46.2844 44.8215 46.3031C44.334 46.4156 44.0246 46.9125 44.1371 47.4C44.2496 47.8969 44.7371 48.1969 45.234 48.0844C45.7215 47.9719 46.0309 47.475 45.9184 46.9781C45.8152 46.5656 45.4402 46.275 45.0277 46.275Z" fill="#C2A74E"/>
</svg>
