<svg width="58" height="58" viewBox="0 0 58 58" fill="none" xmlns="http://www.w3.org/2000/svg">
<path d="M33.6875 9.3125C28.204 9.29672 22.8912 11.2191 18.6875 14.7403V14.2344C18.6868 13.6751 18.4644 13.139 18.069 12.7435C17.6735 12.3481 17.1374 12.1257 16.5781 12.125H16.5507L15.9952 10.4587C15.9155 10.2197 15.8749 9.96943 15.875 9.7175V5.5625C15.875 4.3193 15.3811 3.12701 14.5021 2.24794C13.623 1.36886 12.4307 0.875 11.1875 0.875C9.9443 0.875 8.75201 1.36886 7.87294 2.24794C6.99386 3.12701 6.5 4.3193 6.5 5.5625V9.7175C6.50007 9.96943 6.45947 10.2197 6.37977 10.4587L5.8243 12.125H5.79688C5.23763 12.1257 4.70148 12.3481 4.30604 12.7435C3.9106 13.139 3.68815 13.6751 3.6875 14.2344V19.625C3.43886 19.625 3.2004 19.7238 3.02459 19.8996C2.84877 20.0754 2.75 20.3139 2.75 20.5625V24.3125C2.75 24.5611 2.84877 24.7996 3.02459 24.9754C3.2004 25.1512 3.43886 25.25 3.6875 25.25H4.625V26.1875C4.62465 26.333 4.59061 26.4764 4.52555 26.6065C4.46049 26.7366 4.36617 26.8499 4.25 26.9375L2.75 28.0625C2.16911 28.5003 1.69753 29.0667 1.37222 29.7174C1.04692 30.368 0.876727 31.0851 0.875 31.8125V53.1406C0.876179 54.197 1.29634 55.2097 2.0433 55.9567C2.79026 56.7037 3.80301 57.1238 4.85938 57.125H17.5156C18.572 57.1238 19.5847 56.7037 20.3317 55.9567C21.0787 55.2097 21.4988 54.197 21.5 53.1406V52.7736C25.169 55.0159 29.3876 56.1976 33.6875 56.1875C46.6109 56.1875 57.125 45.6734 57.125 32.75C57.125 19.8266 46.6109 9.3125 33.6875 9.3125ZM8.15844 11.0516C8.302 10.6214 8.37513 10.1709 8.375 9.7175V5.5625C8.375 4.81658 8.67132 4.10121 9.19876 3.57376C9.72621 3.04632 10.4416 2.75 11.1875 2.75C11.9334 2.75 12.6488 3.04632 13.1762 3.57376C13.7037 4.10121 14 4.81658 14 5.5625V9.7175C13.9999 10.1709 14.073 10.6214 14.2166 11.0516L14.5742 12.125H7.80078L8.15844 11.0516ZM5.5625 14.2344C5.5625 14.1722 5.58719 14.1126 5.63115 14.0686C5.6751 14.0247 5.73471 14 5.79688 14H16.5781C16.6403 14 16.6999 14.0247 16.7439 14.0686C16.7878 14.1126 16.8125 14.1722 16.8125 14.2344V19.625H14.9375V15.875H13.0625V19.625H12.125V15.875H10.25V19.625H9.3125V15.875H7.4375V19.625H5.5625V14.2344ZM4.625 21.5H17.75V23.375H4.625V21.5ZM19.625 53.1406C19.6243 53.6999 19.4019 54.236 19.0065 54.6315C18.611 55.0269 18.0749 55.2493 17.5156 55.25H4.85938C4.30013 55.2493 3.76398 55.0269 3.36854 54.6315C2.9731 54.236 2.75065 53.6999 2.75 53.1406V48.6875H19.625V53.1406ZM19.625 46.8125H2.75V35.5625H19.625V46.8125ZM19.625 33.6875H2.75V31.8125H5.5625C5.81114 31.8125 6.0496 31.7137 6.22541 31.5379C6.40123 31.3621 6.5 31.1236 6.5 30.875C6.5 30.6264 6.40123 30.3879 6.22541 30.2121C6.0496 30.0363 5.81114 29.9375 5.5625 29.9375H3.46859C3.59128 29.7993 3.72742 29.6737 3.875 29.5625L5.375 28.4375C5.72352 28.1748 6.00647 27.8349 6.20165 27.4446C6.39683 27.0542 6.49895 26.6239 6.5 26.1875V25.25H15.875V26.1875C15.876 26.6239 15.9782 27.0542 16.1734 27.4446C16.3685 27.8349 16.6515 28.1748 17 28.4375L18.5 29.5625C18.8485 29.8252 19.1315 30.1651 19.3266 30.5554C19.5218 30.9458 19.624 31.3761 19.625 31.8125V33.6875ZM33.6875 54.3125C29.336 54.3231 25.0846 53.007 21.5 50.5399V40.0541C23.1917 40.6418 24.953 41.0058 26.7391 41.1366C25.4925 42.1597 24.4759 43.4344 23.7559 44.8774L23.4668 45.4557C23.3894 45.6104 23.3564 45.7834 23.3713 45.9557C23.3862 46.128 23.4484 46.2929 23.5512 46.432C23.6539 46.5711 23.7931 46.6791 23.9534 46.744C24.1137 46.8089 24.2889 46.8282 24.4595 46.7997L26.2239 46.5056C28.9359 46.0533 31.3956 44.643 33.1561 42.5311L33.6804 41.9019V49.625C33.6804 49.8736 33.7791 50.1121 33.9549 50.2879C34.1308 50.4637 34.3692 50.5625 34.6179 50.5625C34.8665 50.5625 35.1049 50.4637 35.2808 50.2879C35.4566 50.1121 35.5554 49.8736 35.5554 49.625V41.8933L36.0868 42.5311C37.8473 44.6429 40.3069 46.0532 43.0188 46.5056L44.7834 46.7997C44.954 46.8282 45.1291 46.8089 45.2894 46.744C45.4497 46.6791 45.5889 46.5711 45.6917 46.432C45.7944 46.2929 45.8567 46.128 45.8716 45.9557C45.8865 45.7834 45.8534 45.6104 45.7761 45.4557L45.4869 44.8774C44.7669 43.4347 43.7506 42.1601 42.5043 41.1371C44.861 40.9651 47.1702 40.3869 49.3298 39.4279L51.8807 38.2943C52.0557 38.2165 52.2027 38.087 52.302 37.9233C52.4012 37.7595 52.4479 37.5692 52.4358 37.3781C52.4236 37.187 52.3533 37.0042 52.2342 36.8543C52.115 36.7043 51.9528 36.5945 51.7694 36.5395L50.8658 36.2684C47.8519 35.3702 44.6723 35.1746 41.5711 35.6966C44.3494 32.7857 46.4758 29.3164 47.8086 25.5195L48.6349 23.1679C48.6984 22.9871 48.7051 22.7911 48.6538 22.6064C48.6026 22.4217 48.4959 22.2571 48.3482 22.1349C48.2006 22.0126 48.019 21.9386 47.828 21.9228C47.6369 21.9069 47.4456 21.95 47.2798 22.0462L46.9964 22.2103C43.5936 24.1823 40.6394 26.8423 38.3224 30.0202C38.6189 25.297 37.626 20.5821 35.4498 16.3796C35.3708 16.2255 35.2504 16.0966 35.102 16.0075C34.9536 15.9183 34.7832 15.8724 34.6101 15.875C34.4373 15.8764 34.2683 15.9256 34.1217 16.017C33.9751 16.1085 33.8566 16.2387 33.7794 16.3932C31.6635 20.6325 30.6934 25.3516 30.9655 30.0818C28.6421 26.8766 25.6718 24.1949 22.2467 22.21L21.9634 22.046C21.7976 21.9498 21.6063 21.9067 21.4152 21.9225C21.2242 21.9384 21.0426 22.0124 20.895 22.1346C20.7473 22.2569 20.6407 22.4214 20.5894 22.6062C20.5382 22.7909 20.5448 22.9869 20.6083 23.1677L21.4346 25.5193C22.7664 29.3138 24.8907 32.7813 27.6663 35.6912C25.6276 35.3471 23.5486 35.314 21.5 35.5931V31.8125C21.4983 31.0851 21.3281 30.368 21.0028 29.7174C20.6775 29.0667 20.2059 28.5003 19.625 28.0625L18.125 26.9375C18.0088 26.8499 17.9145 26.7366 17.8495 26.6065C17.7844 26.4764 17.7504 26.333 17.75 26.1875V25.25H18.6875C18.9361 25.25 19.1746 25.1512 19.3504 24.9754C19.5262 24.7996 19.625 24.5611 19.625 24.3125V20.5625C19.625 20.3139 19.5262 20.0754 19.3504 19.8996C19.1746 19.7238 18.9361 19.625 18.6875 19.625V17.2617C22.7003 13.3526 28.0854 11.1719 33.6875 11.1875C45.5771 11.1875 55.25 20.8604 55.25 32.75C55.25 44.6396 45.5771 54.3125 33.6875 54.3125ZM31.7199 36.8594C27.8643 33.7991 24.9389 29.7238 23.2727 25.0918C26.8569 27.6158 29.7565 30.9921 31.7102 34.9163C31.8129 35.1219 31.9874 35.2826 32.2008 35.3679C32.4141 35.4533 32.6514 35.4573 32.8675 35.3792C33.0836 35.3011 33.2635 35.1464 33.373 34.9444C33.4826 34.7424 33.5141 34.5072 33.4617 34.2835C32.2736 29.2081 32.6829 23.8895 34.6336 19.0556C36.6216 23.8614 37.0326 29.1743 35.8071 34.2287C35.7535 34.4524 35.7841 34.688 35.893 34.8906C36.0019 35.0932 36.1815 35.2487 36.3975 35.3276C36.6136 35.4064 36.8512 35.403 37.065 35.3181C37.2787 35.2332 37.4538 35.0726 37.5569 34.867C39.5107 30.9637 42.4011 27.6053 45.9699 25.092C44.3035 29.7239 41.3782 33.7991 37.5227 36.8595C37.3478 36.9985 37.2283 37.1954 37.1857 37.4147C37.1431 37.634 37.1802 37.8612 37.2903 38.0556C37.4004 38.25 37.5763 38.3986 37.7863 38.4748C37.9963 38.551 38.2266 38.5497 38.4357 38.4711C41.7135 37.2462 45.2688 36.964 48.6987 37.6565L48.5681 37.7151C45.5737 39.0445 42.2815 39.5604 39.024 39.2109C38.797 39.1865 38.569 39.2457 38.3826 39.3774C38.1962 39.5091 38.0642 39.7044 38.0115 39.9264C37.9588 40.1485 37.9889 40.3822 38.0962 40.5837C38.2035 40.7851 38.3806 40.9405 38.5943 41.0207C40.4594 41.7182 42.0606 42.9799 43.175 44.6301C40.9644 44.2248 38.9657 43.0575 37.5266 41.3312L35.75 39.1986L35.3325 38.7064C35.2445 38.6026 35.135 38.5193 35.0115 38.4621C34.8881 38.4049 34.7537 38.3753 34.6176 38.3752H34.6133C34.4765 38.3758 34.3415 38.4063 34.2178 38.4646C34.0941 38.5228 33.9846 38.6074 33.897 38.7125L31.715 41.3309C30.2759 43.0573 28.2772 44.2246 26.0666 44.6299C27.181 42.9797 28.7822 41.718 30.6473 41.0205C30.861 40.9403 31.0381 40.7849 31.1454 40.5834C31.2527 40.382 31.2828 40.1483 31.2301 39.9262C31.1773 39.7041 31.0454 39.5089 30.859 39.3772C30.6726 39.2454 30.4445 39.1862 30.2176 39.2107C27.261 39.5269 24.2716 39.1316 21.4988 38.0579V37.488C24.6342 37.017 27.838 37.3555 30.8057 38.4713C31.0149 38.5499 31.2452 38.5512 31.4552 38.475C31.6652 38.3989 31.8411 38.2502 31.9512 38.0559C32.0613 37.8615 32.0984 37.6342 32.0558 37.4149C32.0132 37.1956 31.8936 36.9987 31.7188 36.8598L31.7199 36.8594Z" fill="#C2A74E"/>
<path d="M11.1875 29.9375H9.3125C9.06386 29.9375 8.8254 30.0363 8.64959 30.2121C8.47377 30.3879 8.375 30.6264 8.375 30.875C8.375 31.1236 8.47377 31.3621 8.64959 31.5379C8.8254 31.7137 9.06386 31.8125 9.3125 31.8125H11.1875C11.4361 31.8125 11.6746 31.7137 11.8504 31.5379C12.0262 31.3621 12.125 31.1236 12.125 30.875C12.125 30.6264 12.0262 30.3879 11.8504 30.2121C11.6746 30.0363 11.4361 29.9375 11.1875 29.9375Z" fill="#C2A74E"/>
<path d="M11.1875 44.9375C11.7533 44.9375 12.308 44.7799 12.7893 44.4825C13.2707 44.185 13.6597 43.7593 13.9127 43.2532C14.1658 42.7471 14.2729 42.1806 14.2221 41.617C14.1712 41.0534 13.9645 40.5152 13.625 40.0625L11.9375 37.8125C11.8502 37.6961 11.7369 37.6016 11.6068 37.5365C11.4766 37.4714 11.333 37.4375 11.1875 37.4375C11.042 37.4375 10.8984 37.4714 10.7682 37.5365C10.6381 37.6016 10.5248 37.6961 10.4375 37.8125L8.75 40.0625C8.4105 40.5152 8.20375 41.0534 8.15294 41.617C8.10212 42.1806 8.20924 42.7471 8.46229 43.2532C8.71535 43.7593 9.10433 44.185 9.58566 44.4825C10.067 44.7799 10.6217 44.9375 11.1875 44.9375ZM10.25 41.1875L11.1875 39.9375L12.125 41.1875C12.2556 41.3616 12.3351 41.5686 12.3546 41.7854C12.3742 42.0021 12.333 42.22 12.2357 42.4147C12.1383 42.6094 11.9887 42.7731 11.8036 42.8875C11.6185 43.0019 11.4051 43.0625 11.1875 43.0625C10.9699 43.0625 10.7565 43.0019 10.5714 42.8875C10.3863 42.7731 10.2367 42.6094 10.1393 42.4147C10.042 42.22 10.0008 42.0021 10.0204 41.7854C10.0399 41.5686 10.1194 41.3616 10.25 41.1875Z" fill="#C2A74E"/>
</svg>
