<svg width="60" height="60" viewBox="0 0 60 60" fill="none" xmlns="http://www.w3.org/2000/svg">
<path d="M37.1219 8.80942C36.5954 8.83317 36.0956 9.04764 35.7156 9.41281C35.691 9.43625 35.6668 9.45969 35.6453 9.48231C35.6213 9.50668 35.5984 9.53141 35.574 9.55766C35.2128 9.94943 35.0041 10.4577 34.9856 10.9902C34.3198 10.9511 33.6574 11.1087 33.0805 11.4433C32.5037 11.7779 32.038 12.2748 31.7415 12.8721C31.5466 13.2757 31.4766 13.7283 31.5404 14.172C31.6041 14.6157 31.7987 15.0303 32.0992 15.3628C32.3788 15.6692 32.5458 15.9693 32.5458 16.1657C32.5458 16.3811 32.391 16.6722 32.1214 16.9643C31.8137 17.2969 31.6136 17.7147 31.5473 18.1629C31.4809 18.6112 31.5514 19.069 31.7495 19.4765C32.0257 20.0399 32.4543 20.5147 32.9867 20.8468C33.519 21.179 34.1338 21.3553 34.7613 21.3557C34.8316 21.3557 34.9033 21.3527 34.9745 21.3481C34.995 21.8784 35.2038 22.384 35.5635 22.7742C35.5859 22.7986 35.6085 22.8225 35.6318 22.8464C35.6552 22.8703 35.6801 22.8945 35.7051 22.9182C36.0878 23.2852 36.5917 23.4993 37.1215 23.5198C37.0842 24.1787 37.242 24.834 37.5752 25.4037C37.9084 25.9734 38.4022 26.4321 38.9948 26.7226C39.4023 26.9209 39.8603 26.9916 40.3087 26.9252C40.7572 26.8589 41.1751 26.6586 41.5077 26.3507C41.7997 26.0812 42.0907 25.9264 42.3061 25.9264C42.5024 25.9264 42.8025 26.0934 43.1091 26.373C43.5241 26.7487 44.0642 26.9563 44.624 26.9552C44.9621 26.9558 45.2959 26.879 45.5998 26.7308C46.1921 26.4367 46.6858 25.9763 47.0203 25.4059C47.3549 24.8355 47.5158 24.18 47.4834 23.5195C47.9945 23.4949 48.4806 23.291 48.8563 22.9435C48.8814 22.9207 48.9061 22.8966 48.9285 22.8751C48.9536 22.8505 48.9781 22.8255 49.0008 22.8012C49.3769 22.4081 49.5958 21.8907 49.6159 21.3471C49.6941 21.3526 49.7721 21.3561 49.8503 21.3561C50.4778 21.3557 51.0926 21.1794 51.6249 20.8472C52.1573 20.515 52.5858 20.0403 52.862 19.4769C53.0602 19.0694 53.1308 18.6116 53.0645 18.1634C52.9982 17.7152 52.7981 17.2975 52.4904 16.9648C52.2209 16.6728 52.0661 16.3817 52.0661 16.1663C52.0661 15.9699 52.2331 15.6698 52.5126 15.3632C52.8131 15.0307 53.0077 14.6162 53.0714 14.1725C53.1351 13.7289 53.0651 13.2763 52.8702 12.8727C52.5739 12.2753 52.1083 11.7784 51.5316 11.4437C50.9549 11.1091 50.2925 10.9514 49.6268 10.9905C49.6083 10.4452 49.3897 9.92579 49.0128 9.53129C48.9893 9.50586 48.9645 9.4809 48.9414 9.45828C48.9183 9.43566 48.8923 9.41141 48.8666 9.38797C48.4888 9.03762 47.9986 8.83298 47.4838 8.81059C47.5158 8.15039 47.3546 7.49518 47.0199 6.9252C46.6852 6.35523 46.1916 5.89523 45.5995 5.60152C45.1958 5.40671 44.7432 5.33668 44.2996 5.40039C43.8559 5.4641 43.4414 5.65865 43.1089 5.95918C42.8023 6.23867 42.5021 6.40566 42.3058 6.40566C42.0905 6.40566 41.7994 6.25098 41.5074 5.98133C41.1747 5.67378 40.7569 5.47378 40.3087 5.40748C39.8605 5.34119 39.4027 5.41167 38.9952 5.60973C38.4031 5.89999 37.9097 6.35828 37.5765 6.92734C37.2433 7.4964 37.0852 8.15101 37.1219 8.80942ZM35.3758 19.6031C34.9742 19.7537 34.531 19.7495 34.1324 19.5912C33.7338 19.433 33.4084 19.1321 33.2195 18.747C33.168 18.6376 33.1506 18.5151 33.1698 18.3957C33.1889 18.2762 33.2436 18.1653 33.3268 18.0774C33.8893 17.468 34.1867 16.8073 34.1867 16.1657C34.1867 15.5357 33.8922 14.8937 33.3116 14.257C33.2314 14.1685 33.1793 14.0581 33.1621 13.9398C33.145 13.8216 33.1635 13.7009 33.2153 13.5932C33.4066 13.209 33.7325 12.9085 34.131 12.7491C34.5295 12.5896 34.9727 12.5822 35.3763 12.7284L39.307 14.6918C39.2009 14.9062 39.1184 15.1316 39.0609 15.3638L38.1153 15.3725C37.8977 15.3735 37.6894 15.4608 37.5363 15.6153C37.3831 15.7699 37.2976 15.9789 37.2986 16.1964C37.2996 16.414 37.3869 16.6223 37.5414 16.7754C37.696 16.9286 37.905 17.0141 38.1225 17.0131H38.1302L39.0696 17.0046C39.1267 17.2239 39.206 17.4367 39.3065 17.6398L35.3758 19.6031ZM38.2305 20.7011L38.2282 20.7L37.896 21.3241C37.8843 21.3466 37.8726 21.3696 37.8632 21.3932C37.8174 21.51 37.7445 21.6141 37.6504 21.697C37.5564 21.7799 37.4439 21.8392 37.3224 21.87C37.2353 21.8898 37.1446 21.8869 37.059 21.8618C36.9733 21.8366 36.8955 21.7899 36.833 21.7262C36.8233 21.7169 36.8137 21.7075 36.8041 21.6978C36.7945 21.6881 36.7843 21.6772 36.7758 21.668C36.7075 21.5962 36.6584 21.5084 36.6328 21.4126C36.6073 21.3169 36.6062 21.2162 36.6297 21.12C36.6589 20.9998 36.7166 20.8885 36.7979 20.7954C36.8792 20.7022 36.9817 20.63 37.0968 20.5849C37.1178 20.5762 37.1386 20.5666 37.1589 20.5563L37.7931 20.2318L37.7923 20.23L38.6897 19.7818L38.2305 20.7011ZM44.8782 25.2571C44.7705 25.309 44.6498 25.3275 44.5315 25.3103C44.4132 25.2931 44.3028 25.241 44.2143 25.1607C43.5775 24.5802 42.9354 24.2858 42.3057 24.2858C41.6641 24.2858 41.0031 24.5831 40.3941 25.1456C40.3062 25.2287 40.1953 25.2835 40.0758 25.3026C39.9563 25.3217 39.8338 25.3044 39.7244 25.2528C39.3394 25.0639 39.0384 24.7385 38.8802 24.3399C38.7219 23.9413 38.7177 23.4981 38.8683 23.0966L40.8318 19.1656C41.0475 19.2719 41.2742 19.3545 41.5077 19.4117L41.5123 20.3531C41.5134 20.57 41.6002 20.7776 41.754 20.9306C41.9077 21.0835 42.1157 21.1694 42.3326 21.1694H42.3367C42.4445 21.1689 42.551 21.1472 42.6504 21.1054C42.7497 21.0637 42.8398 21.0028 42.9156 20.9263C42.9914 20.8497 43.0514 20.759 43.0922 20.6593C43.1329 20.5595 43.1536 20.4527 43.153 20.345L43.1485 19.4009C43.3663 19.3439 43.5778 19.265 43.7796 19.1653L44.9111 21.4306L44.9076 21.4325L45.0796 21.768L45.2477 22.1046C45.274 22.1621 45.3018 22.2187 45.332 22.2736L45.743 23.0963C45.8892 23.4999 45.8818 23.943 45.7223 24.3415C45.5629 24.7399 45.2625 25.0658 44.8783 25.2571H44.8782ZM40.6034 16.1657C40.6034 15.8291 40.7032 15.5 40.8903 15.22C41.0773 14.9401 41.3432 14.7219 41.6542 14.5931C41.9653 14.4642 42.3076 14.4305 42.6378 14.4962C42.968 14.5619 43.2713 14.724 43.5093 14.9621C43.7474 15.2001 43.9095 15.5034 43.9752 15.8336C44.0409 16.1639 44.0072 16.5061 43.8783 16.8172C43.7495 17.1282 43.5313 17.3941 43.2514 17.5811C42.9715 17.7682 42.6423 17.868 42.3057 17.868C41.8544 17.8675 41.4217 17.688 41.1026 17.3689C40.7835 17.0497 40.604 16.617 40.6035 16.1657H40.6034ZM47.8063 21.676C47.7979 21.6849 47.7892 21.6938 47.7782 21.7046C47.7672 21.7154 47.7589 21.7232 47.7497 21.7316C47.6858 21.7947 47.6068 21.8404 47.5201 21.8643C47.4335 21.8881 47.3422 21.8893 47.255 21.8677C47.1542 21.8413 47.0598 21.7946 46.9776 21.7305C46.8955 21.6664 46.8272 21.5862 46.7771 21.4948L46.7267 21.3942C46.7252 21.3903 46.723 21.3867 46.7214 21.3825C46.712 21.3585 46.7015 21.335 46.6898 21.3121L46.5502 21.0399L45.9214 19.781L46.846 20.2427L47.442 20.5591C47.4623 20.5699 47.4828 20.5797 47.5037 20.5887C47.6181 20.6356 47.7195 20.7093 47.7994 20.8037C47.8792 20.898 47.9351 21.0102 47.9624 21.1307C47.9844 21.2274 47.9816 21.3281 47.9543 21.4234C47.9271 21.5187 47.8762 21.6056 47.8064 21.676H47.8063ZM49.236 12.7284C49.6396 12.5823 50.0828 12.5898 50.4812 12.7494C50.8796 12.9089 51.2054 13.2095 51.3966 13.5937C51.4483 13.7014 51.4668 13.822 51.4497 13.9403C51.4326 14.0585 51.3806 14.1689 51.3004 14.2575C50.7198 14.8941 50.4253 15.5362 50.4253 16.1662C50.4253 16.8077 50.7225 17.4686 51.2852 18.0779C51.3683 18.1657 51.423 18.2766 51.4422 18.3961C51.4613 18.5155 51.444 18.638 51.3924 18.7474C51.2035 19.1324 50.8781 19.4334 50.4795 19.5917C50.0809 19.75 49.6377 19.7542 49.2361 19.6036L47.5943 18.7832L47.5826 18.7773L45.3046 17.6398C45.4102 17.4258 45.4924 17.2011 45.5498 16.9694L46.4971 16.9592C46.7147 16.9581 46.9229 16.8706 47.0759 16.7159C47.2289 16.5613 47.3143 16.3522 47.3131 16.1346C47.312 15.9171 47.2245 15.7089 47.0699 15.5558C46.9152 15.4028 46.7061 15.3175 46.4886 15.3186H46.4795L45.542 15.3287C45.4849 15.1088 45.4054 14.8954 45.3047 14.6918L47.5912 13.5496L47.5932 13.5532L47.7332 13.4788L49.236 12.7284ZM46.3744 11.6441L46.3786 11.6463L46.7009 11.0173C46.7126 10.9939 46.7232 10.9713 46.7325 10.9476C46.7765 10.8302 46.8479 10.725 46.9407 10.6406C47.0335 10.5563 47.145 10.4952 47.2661 10.4626C47.3532 10.4411 47.4443 10.4423 47.5308 10.466C47.6173 10.4897 47.6963 10.5352 47.7603 10.5982C47.77 10.6072 47.7798 10.6163 47.7912 10.6276C47.8003 10.6365 47.809 10.6454 47.8185 10.6555C47.8878 10.7257 47.9383 10.8123 47.9654 10.9071C47.9925 11.002 47.9953 11.1022 47.9736 11.1984C47.9462 11.3189 47.8903 11.4311 47.8104 11.5254C47.7306 11.6198 47.6292 11.6935 47.5149 11.7404C47.4939 11.7494 47.4733 11.7593 47.4532 11.7699L46.9804 12.0211L45.9217 12.5498L46.3744 11.6441ZM39.7246 7.07914C39.8341 7.02756 39.9566 7.01022 40.0761 7.02937C40.1955 7.04852 40.3065 7.10328 40.3943 7.18649C41.0037 7.74899 41.6644 8.04617 42.3058 8.04617C42.9355 8.04617 43.5777 7.7518 44.2144 7.17125C44.303 7.09104 44.4134 7.03904 44.5317 7.02188C44.6499 7.00472 44.7706 7.02319 44.8783 7.07492C45.2625 7.26616 45.563 7.59205 45.7225 7.99052C45.882 8.38899 45.8893 8.8322 45.7431 9.23574L43.7798 13.1666C43.5639 13.0602 43.3372 12.9777 43.1035 12.9205L43.099 11.9793C43.098 11.7624 43.0111 11.5548 42.8574 11.4018C42.7037 11.2488 42.4956 11.1629 42.2787 11.1629H42.2747C42.167 11.1634 42.0604 11.1851 41.9611 11.2268C41.8618 11.2685 41.7716 11.3294 41.6958 11.4059C41.62 11.4824 41.56 11.5731 41.5192 11.6729C41.4785 11.7726 41.4578 11.8793 41.4583 11.9871L41.4627 12.9314C41.2449 12.9883 41.0335 13.0672 40.8317 13.167L39.681 10.8632L39.6872 10.86L39.5613 10.6231L38.8686 9.23621C38.7177 8.83458 38.7218 8.39115 38.88 7.99236C39.0383 7.59358 39.3394 7.26802 39.7246 7.07914ZM37.8003 12.1054L37.804 12.0983L37.1697 11.7739C37.1493 11.7635 37.1286 11.754 37.1075 11.7453C36.9924 11.7002 36.8899 11.628 36.8087 11.5349C36.7274 11.4418 36.6698 11.3305 36.6406 11.2104C36.6172 11.1145 36.6181 11.0142 36.6433 10.9188C36.6686 10.8234 36.7173 10.7358 36.7851 10.664C36.794 10.6543 36.8032 10.6445 36.8145 10.633C36.824 10.6232 36.8336 10.6139 36.8429 10.6051C36.9053 10.5411 36.9832 10.4942 37.0689 10.469C37.1547 10.4437 37.2455 10.441 37.3327 10.4609C37.4543 10.4917 37.5668 10.551 37.6608 10.6339C37.7549 10.7169 37.8279 10.821 37.8736 10.9378C37.8835 10.9612 37.8944 10.9846 37.9064 11.0068L38.0993 11.3691L38.6891 12.5502L37.8003 12.1054Z" fill="#C2A74E"/>
<path d="M20.3965 17.713C20.6708 19.055 21.2418 21.8475 24.4758 22.3943C24.5026 22.3987 24.5295 22.4019 24.5567 22.4038L27.5587 22.6091C27.5774 22.6104 27.5962 22.611 27.6148 22.611C27.769 22.6109 27.92 22.5674 28.0506 22.4855C28.1811 22.4035 28.286 22.2864 28.3531 22.1476L29.6623 19.4385C29.6721 19.418 29.6812 19.397 29.6895 19.3759C30.8654 16.3161 28.7071 14.4262 27.6697 13.518L27.5583 13.4203C26.0272 12.0727 21.1026 8.89887 20.8937 8.76433C20.7667 8.68259 20.6196 8.63751 20.4685 8.63406C20.3175 8.63062 20.1685 8.66895 20.0378 8.74482C19.9072 8.82069 19.8001 8.93116 19.7282 9.06405C19.6564 9.19693 19.6226 9.34708 19.6307 9.49793C19.6439 9.74601 19.9597 15.596 20.372 17.5939L20.3965 17.713ZM26.4742 14.6516L26.589 14.7524C27.8124 15.8235 28.8532 16.9362 28.1698 18.7568L27.5499 20.0391L24.7571 15.2306C24.6478 15.0425 24.4682 14.9055 24.2579 14.8497C24.0476 14.794 23.8238 14.824 23.6357 14.9333C23.4476 15.0426 23.3105 15.2221 23.2548 15.4324C23.199 15.6427 23.2291 15.8666 23.3384 16.0547L26.1334 20.8672L24.711 20.77C22.7805 20.4258 22.3285 18.9723 22.004 17.3845L21.9789 17.2627C21.7197 16.0058 21.4909 12.9411 21.3669 11.0333C22.9626 12.0862 25.5117 13.8036 26.4742 14.6516Z" fill="#C2A74E"/>
<path d="M56.8851 25.0718C56.6528 25.1597 51.1745 27.2364 49.3968 28.2359L49.2913 28.2951C48.2221 28.8928 46.1168 30.0726 46.0178 32.6437H32.7047L12.2842 18.3423C12.5971 17.9039 12.7322 17.3631 12.6622 16.8291C12.5923 16.295 12.3224 15.8073 11.9071 15.4643L11.2591 14.931C11.0434 14.7534 10.7948 14.62 10.5276 14.5385C10.2603 14.4569 9.97963 14.4289 9.70154 14.4559C9.42345 14.4829 9.1534 14.5644 8.90681 14.6958C8.66023 14.8271 8.44195 15.0058 8.26445 15.2216L2.48921 22.238C2.31164 22.4536 2.17829 22.7022 2.09679 22.9694C2.01529 23.2367 1.98723 23.5173 2.01422 23.7954C2.04121 24.0735 2.12271 24.3435 2.25408 24.5901C2.38545 24.8367 2.5641 25.0549 2.77984 25.2325L3.42788 25.766C3.80689 26.0797 4.28354 26.2513 4.77554 26.251C4.84499 26.251 4.9148 26.2476 4.98495 26.2409C5.49663 26.1919 5.97287 25.958 6.32429 25.5828L13.6584 32.6434H12.9162C12.6986 32.6434 12.49 32.7298 12.3362 32.8837C12.1823 33.0375 12.0959 33.2461 12.0959 33.4637V37.059C12.0998 40.1821 13.2539 43.1944 15.3379 45.5205C17.4218 47.8467 20.2895 49.3238 23.3934 49.6698V53.8052C23.3934 54.0228 23.4798 54.2314 23.6336 54.3853C23.7875 54.5391 23.9961 54.6255 24.2137 54.6255H45.4318C45.6493 54.6255 45.858 54.5391 46.0118 54.3853C46.1656 54.2314 46.2521 54.0228 46.2521 53.8052V49.6698C49.3558 49.3236 52.2234 47.8465 54.3072 45.5203C56.3909 43.1942 57.545 40.182 57.5489 37.059V33.4637C57.5489 33.2461 57.4625 33.0375 57.3087 32.8837C57.1548 32.7298 56.9462 32.6434 56.7286 32.6434H56.0004C56.8318 30.2519 57.9128 26.2527 57.9668 26.0526C58.0062 25.9068 58.0045 25.7529 57.9619 25.6079C57.9194 25.463 57.8376 25.3326 57.7257 25.2312C57.6137 25.1297 57.476 25.0611 57.3275 25.033C57.1791 25.0049 57.0258 25.0183 56.8845 25.0718H56.8851ZM5.15558 24.4328C5.07351 24.5324 4.95524 24.5954 4.82676 24.6079C4.69828 24.6203 4.5701 24.5813 4.47038 24.4993L3.82246 23.9659C3.72292 23.8837 3.66003 23.7655 3.64755 23.637C3.63507 23.5085 3.67403 23.3804 3.75589 23.2806L9.53124 16.2641C9.57174 16.2146 9.62165 16.1736 9.6781 16.1436C9.73455 16.1135 9.7964 16.095 9.86007 16.089C9.87596 16.0874 9.89191 16.0866 9.90788 16.0866C10.0206 16.0865 10.1297 16.1259 10.2164 16.1978L10.8645 16.731C10.964 16.8131 11.027 16.9314 11.0394 17.0599C11.0519 17.1883 11.0129 17.3165 10.931 17.4163L5.15558 24.4328ZM7.37558 24.3172L11.2444 19.6172L29.8449 32.6434H16.0243L7.37558 24.3172ZM44.6114 52.9849H25.0344V49.7461H44.6114V52.9849ZM55.9083 37.0591C55.905 39.9877 54.7401 42.7954 52.6693 44.8662C50.5986 46.9371 47.7909 48.102 44.8623 48.1055H24.7834C21.8547 48.1021 19.0469 46.9372 16.976 44.8663C14.9051 42.7954 13.7403 39.9876 13.737 37.0589V34.2839H54.8078H54.8124H54.8157H55.9089L55.9083 37.0591ZM54.2578 32.6434H52.1203L52.9786 31.6963C53.0528 31.6168 53.1104 31.5233 53.1481 31.4214C53.1859 31.3194 53.2029 31.211 53.1984 31.1023C53.1938 30.9937 53.1677 30.8871 53.1216 30.7886C53.0754 30.6902 53.0102 30.6019 52.9296 30.5289C52.8491 30.4559 52.7548 30.3996 52.6523 30.3633C52.5498 30.3271 52.4411 30.3116 52.3326 30.3177C52.224 30.3238 52.1178 30.3515 52.02 30.399C51.9222 30.4466 51.8349 30.5131 51.763 30.5947L49.9063 32.6435H47.6592C47.749 31.1698 48.8564 30.4169 50.0912 29.7267L50.1998 29.6659C51.3184 29.0375 54.1691 27.8893 55.9492 27.1922C55.4945 28.8039 54.7762 31.2664 54.2578 32.6434Z" fill="#C2A74E"/>
</svg>
