<svg width="98" height="98" viewBox="0 0 98 98" fill="none" xmlns="http://www.w3.org/2000/svg">
<path d="M78.7177 58.7009C78.1628 58.5077 77.599 58.32 77.0301 58.1352C77.327 57.9607 77.6193 57.7827 77.9035 57.5991C83.4263 54.0346 86.4678 48.8616 86.4678 43.0329C86.4678 37.2042 83.4261 32.0313 77.9035 28.4667C75.8662 27.1517 73.5019 26.0647 70.8557 25.2136C73.5212 22.7029 74.9355 19.8626 74.9355 16.8887C74.9355 12.1108 71.286 7.67654 64.6588 4.40253C58.995 1.60475 51.8866 0 45.156 0C38.4937 0 32.9035 1.63346 28.9898 4.72352C25.169 7.74047 23.0646 12.0609 23.0646 16.8891C23.0646 21.0618 24.6376 24.8545 27.5307 27.7551C27.1313 27.9063 26.7349 28.0596 26.3446 28.2173C16.7928 32.0745 11.5322 37.3365 11.5322 43.0333C11.5322 47.4927 14.7561 51.6854 20.7379 55.1466C17.1165 56.1155 13.8963 57.3715 11.1421 58.9035C3.95713 62.9001 0 68.7508 0 75.3783C0 82.0057 3.95713 87.8564 11.1421 91.8532C18.3716 95.8744 28.8042 98 41.3118 98C54.229 98 67.8631 95.8335 78.7177 92.0557C91.3322 87.6654 98 81.8985 98 75.3783C98 68.858 91.3322 63.0911 78.7177 58.7009ZM41.3118 92.2578C29.7786 92.2578 20.3113 90.3826 13.9334 86.8349C10.1966 84.7566 5.74219 81.0816 5.74219 75.3783C5.74219 69.6749 10.1966 65.9999 13.9334 63.9215C18.0751 61.6177 23.5206 60.0202 29.9874 59.1824C37.5332 61.6853 46.3507 63.0923 54.7661 63.0923C59.6929 63.0923 64.2024 62.5874 68.1797 61.6083C82.3807 65.0067 92.2578 70.6038 92.2578 75.3783C92.2578 82.8186 68.271 92.2578 41.3118 92.2578ZM17.2744 43.0331C17.2744 39.1585 23.9298 34.6453 33.6592 31.7378C36.9249 33.0788 40.8103 33.7782 45.156 33.7782C51.7719 33.7782 58.7495 32.225 64.3646 29.5147C74.5458 31.3545 80.7256 36.2606 80.7256 43.0333C80.7256 51.7306 70.5359 57.3503 54.7661 57.3503C34.9267 57.3501 17.2744 49.344 17.2744 43.0331ZM28.8068 16.8891C28.8068 10.0134 35.0714 5.74219 45.156 5.74219C50.9479 5.74219 57.2879 7.16606 62.1153 9.55098C66.5474 11.7405 69.1934 14.4837 69.1934 16.8891C69.1934 19.2945 66.5474 22.0376 62.1153 24.2272C57.2877 26.6122 50.9478 28.036 45.156 28.036C35.0714 28.036 28.8068 23.7648 28.8068 16.8891Z" fill="#C2A74E" fill-opacity="0.1"/>
</svg>
