<svg width="60" height="60" viewBox="0 0 60 60" fill="none" xmlns="http://www.w3.org/2000/svg">
<path d="M48.1945 35.9393C47.8548 35.8211 47.5096 35.7061 47.1613 35.593C47.343 35.4861 47.522 35.3771 47.696 35.2648C51.0773 33.0824 52.9395 29.9153 52.9395 26.3467C52.9395 22.7781 51.0772 19.611 47.696 17.4286C46.4487 16.6235 45.0012 15.958 43.3811 15.4369C45.013 13.8997 45.8789 12.1608 45.8789 10.34C45.8789 7.4148 43.6445 4.69992 39.587 2.69543C36.1194 0.9825 31.7673 0 27.6465 0C23.5676 0 20.145 1.00008 17.7489 2.89195C15.4096 4.73906 14.1212 7.38422 14.1212 10.3403C14.1212 12.895 15.0843 15.217 16.8555 16.9929C16.611 17.0855 16.3683 17.1793 16.1293 17.2759C10.2813 19.6375 7.06055 22.8591 7.06055 26.3469C7.06055 29.0771 9.03434 31.6441 12.6967 33.7632C10.4795 34.3564 8.50793 35.1254 6.82172 36.0634C2.42273 38.5103 0 42.0923 0 46.15C0 50.2076 2.42273 53.7896 6.82172 56.2366C11.2479 58.6986 17.6352 60 25.2929 60C33.2014 60 41.5488 58.6736 48.1945 56.3606C55.9177 53.6727 60 50.142 60 46.15C60 42.158 55.9177 38.6272 48.1945 35.9393ZM25.2929 56.4844C18.2318 56.4844 12.4355 55.3363 8.53066 53.1642C6.24281 51.8918 3.51562 49.6418 3.51562 46.15C3.51562 42.6581 6.24281 40.4081 8.53066 39.1356C11.0664 37.7251 14.4004 36.7471 18.3596 36.2341C22.9795 37.7665 28.378 38.6279 33.5303 38.6279C36.5467 38.6279 39.3076 38.3188 41.7427 37.7194C50.4371 39.8 56.4844 43.2268 56.4844 46.15C56.4844 50.7053 41.7986 56.4844 25.2929 56.4844ZM10.5762 26.3468C10.5762 23.9746 14.6509 21.2114 20.6077 19.4313C22.6071 20.2523 24.9859 20.6805 27.6465 20.6805C31.6971 20.6805 35.9691 19.7296 39.4069 18.0702C45.6403 19.1966 49.4238 22.2004 49.4238 26.3469C49.4238 31.6718 43.1852 35.1124 33.5303 35.1124C21.3837 35.1123 10.5762 30.2106 10.5762 26.3468ZM17.6368 10.3403C17.6368 6.13066 21.4723 3.51562 27.6465 3.51562C31.1926 3.51562 35.0742 4.38738 38.0298 5.84754C40.7433 7.18805 42.3633 8.86758 42.3633 10.3403C42.3633 11.813 40.7433 13.4924 38.0298 14.833C35.0741 16.2932 31.1925 17.1649 27.6465 17.1649C21.4723 17.1649 17.6368 14.5499 17.6368 10.3403Z" fill="#C2A74E"/>
</svg>
