<svg width="98" height="98" viewBox="0 0 98 98" fill="none" xmlns="http://www.w3.org/2000/svg">
<path d="M40.1949 92.0587H9.01862C8.60519 92.0587 8.20706 91.8903 7.91613 91.5841C7.62519 91.2778 7.47206 90.8797 7.48738 90.4509L9.06456 54.9106C9.09519 54.0684 9.8455 53.41 10.6571 53.4559C11.4993 53.4866 12.1577 54.2062 12.1117 55.0484L10.6264 88.9962H38.5871L37.0099 54.6197C36.9639 53.7775 37.6224 53.0578 38.4646 53.0272C39.3067 52.9659 40.0264 53.6397 40.0571 54.4819L41.7108 90.4662C41.7261 90.8797 41.573 91.2931 41.2821 91.5994C41.0064 91.8903 40.6083 92.0587 40.1949 92.0587Z" fill="#C2A74E" fill-opacity="0.1"/>
<path d="M24.6055 47.3768C23.7633 47.3768 23.0742 46.6878 23.0742 45.8456V37.8218C23.0742 36.9797 23.7633 36.2906 24.6055 36.2906C25.4477 36.2906 26.1367 36.9797 26.1367 37.8218V45.8456C26.1367 46.7031 25.4477 47.3768 24.6055 47.3768Z" fill="#C2A74E" fill-opacity="0.1"/>
<path d="M24.6064 47.3769C18.7264 47.3769 13.9336 41.0068 13.9336 33.1822C13.9336 25.679 23.0905 15.7259 23.4886 15.3125C24.0705 14.6847 25.1577 14.6847 25.7242 15.3125C26.107 15.7259 35.2792 25.679 35.2792 33.1822C35.2792 41.0068 30.4864 47.3769 24.6064 47.3769ZM24.6064 18.6812C21.7736 22.05 16.9961 28.6343 16.9961 33.1975C16.9961 39.3378 20.4108 44.3297 24.6064 44.3297C28.802 44.3297 32.2167 39.3378 32.2167 33.1975C32.2167 28.6343 27.4545 22.0347 24.6064 18.6812Z" fill="#C2A74E" fill-opacity="0.1"/>
<path d="M35.7385 56.9931H12.6932C9.20195 56.9931 6.36914 54.145 6.36914 50.6537C6.36914 48.9847 7.04289 47.3615 8.20664 46.1825C9.40102 44.9881 10.9935 44.3297 12.6932 44.3297H35.7385C39.2298 44.3297 42.0626 47.1625 42.0626 50.6537C42.0626 52.3687 41.4041 53.9612 40.1945 55.1556C39.046 56.3193 37.4229 56.9931 35.7385 56.9931ZM12.6932 47.3922C11.8051 47.3922 11.0088 47.729 10.381 48.3568C9.78383 48.954 9.43164 49.7962 9.43164 50.6537C9.43164 52.4606 10.9016 53.9306 12.6932 53.9306H35.7385C36.596 53.9306 37.4382 53.5784 38.0354 52.9812C38.6785 52.3534 39.0154 51.5418 39.0154 50.6537C39.0154 48.8468 37.5454 47.3922 35.7538 47.3922H12.6932Z" fill="#C2A74E" fill-opacity="0.1"/>
<path d="M54.9091 92.0587H35.0488C34.2066 92.0587 33.5176 91.3697 33.5176 90.5275C33.5176 89.6853 34.2066 88.9962 35.0488 88.9962H54.8938C55.736 88.9962 56.4251 89.6853 56.4251 90.5275C56.4251 91.3697 55.7513 92.0587 54.9091 92.0587Z" fill="#C2A74E" fill-opacity="0.1"/>
<path d="M69.6871 55.8447C68.8756 55.8447 68.2018 55.2015 68.1559 54.39L67.8956 48.709C67.865 47.8669 68.5081 47.1472 69.3503 47.1165C70.1925 47.0553 70.9121 47.729 70.9428 48.5712L71.2031 54.2522C71.2337 55.0944 70.5906 55.814 69.7484 55.8447C69.7331 55.8447 69.7178 55.8447 69.6871 55.8447Z" fill="#C2A74E" fill-opacity="0.1"/>
<path d="M53.2109 40.0268C52.3687 40.0268 51.6797 39.3378 51.6797 38.4956V29.155C51.6797 28.3128 52.3687 27.6237 53.2109 27.6237C54.0531 27.6237 54.7422 28.3128 54.7422 29.155V38.4956C54.7422 39.3531 54.0531 40.0268 53.2109 40.0268Z" fill="#C2A74E" fill-opacity="0.1"/>
<path d="M53.2105 40.0269C46.5037 40.0269 41.0371 32.7228 41.0371 23.7497C41.0371 15.1134 51.6334 3.59843 52.0927 3.10843C52.6746 2.48062 53.7618 2.48062 54.3284 3.10843C54.7724 3.59843 65.384 15.0981 65.384 23.7497C65.384 32.7381 59.9174 40.0269 53.2105 40.0269ZM53.2105 6.49249C50.5462 9.61624 44.0996 17.8237 44.0996 23.765C44.0996 31.0537 48.188 36.9797 53.2105 36.9797C58.233 36.9797 62.3215 31.0537 62.3215 23.765C62.3215 17.8237 55.8596 9.61624 53.2105 6.49249Z" fill="#C2A74E" fill-opacity="0.1"/>
<path d="M66.1646 51.2356H40.4243C39.5821 51.2356 38.893 50.5465 38.893 49.7044C38.893 48.8622 39.5821 48.1731 40.4243 48.1731H66.1493C67.0068 48.1731 67.8337 47.8975 68.4921 47.4075C68.7218 47.2544 68.8443 47.1472 68.9668 47.0094C69.7937 46.2131 70.2071 45.1872 70.2071 44.0847C70.2071 41.8491 68.3849 40.0422 66.1493 40.0422H39.3371C38.2346 40.0422 37.224 40.4709 36.4737 41.2366C35.708 41.9869 35.2793 43.0281 35.2793 44.0847C35.2793 44.5134 35.3559 44.9422 35.4937 45.3709C35.754 46.1672 35.3252 47.04 34.529 47.3003C33.7327 47.5759 32.8599 47.1319 32.5843 46.3356C32.3393 45.6006 32.2168 44.8503 32.2168 44.0847C32.2168 42.2012 32.9824 40.3637 34.3146 39.0622C35.6315 37.7147 37.423 36.9797 39.3524 36.9797H66.1646C70.0999 36.9797 73.2849 40.1647 73.2849 44.0847C73.2849 46.0294 72.5346 47.8209 71.1718 49.1531C70.9421 49.3981 70.6359 49.6584 70.2837 49.9034C69.1659 50.7456 67.6805 51.2356 66.1646 51.2356Z" fill="#C2A74E" fill-opacity="0.1"/>
<path d="M65.5679 95.3663C64.5879 95.3663 63.6845 95.106 62.9036 94.616C59.7951 92.6253 59.642 87.6028 62.5514 82.9172C63.6232 81.2022 64.8942 79.7322 66.3182 78.5838C67.5126 77.6191 68.7835 76.8841 70.0698 76.4094C70.866 76.1185 71.7389 76.5166 72.0298 77.3128C72.3207 78.1091 71.9226 78.9819 71.1264 79.2881C70.1464 79.6556 69.1664 80.2222 68.2323 80.9725C67.0686 81.9219 66.0273 83.1163 65.1392 84.5403C63.072 87.8631 63.1639 91.1707 64.542 92.0435C65.0932 92.3957 65.7976 92.3344 66.2723 92.2272C67.9414 91.8444 69.7635 90.3438 71.0192 88.3072C72.3514 86.1788 73.0098 83.8053 73.0098 81.2481C73.0098 80.8194 72.9945 80.4519 72.9485 80.1303C72.8567 79.2882 73.4539 78.5378 74.296 78.446C75.1382 78.3541 75.8885 78.9513 75.9804 79.7935C76.0264 80.2375 76.0723 80.7428 76.057 81.2635C76.057 84.3719 75.2301 87.2813 73.607 89.915C71.892 92.656 69.396 94.6313 66.9307 95.1978C66.4867 95.3203 66.012 95.3663 65.5679 95.3663Z" fill="#C2A74E" fill-opacity="0.1"/>
<path d="M70.7905 77.3741C70.423 77.3741 70.0708 77.2516 69.7799 76.9913C68.8764 76.195 68.0036 75.1997 67.2533 74.0819C67.1768 74.0053 67.1155 73.9135 67.0543 73.8063C66.0436 72.2597 65.2933 70.5447 64.8493 68.7378C64.0989 65.5835 64.4358 62.4138 65.768 60.2547C66.5796 58.9378 67.7127 58.0803 69.0296 57.7741C72.5668 56.9472 76.3336 60.4385 77.6199 65.7213C78.0639 67.5435 78.2324 69.3044 78.0946 70.9581C78.018 72.5047 77.6658 74.0513 77.0686 75.5213C76.7471 76.3022 75.8436 76.6697 75.0627 76.3481C74.2818 76.0266 73.9143 75.1231 74.2358 74.3422C74.7105 73.1938 74.9861 71.9841 75.0474 70.7438C75.1546 69.381 75.0321 67.9416 74.6493 66.441C73.7152 62.6281 71.3111 60.3772 69.7186 60.7447C69.0755 60.8978 68.6314 61.4338 68.3711 61.8625C67.4677 63.3172 67.2686 65.6753 67.8199 68.0028C68.1721 69.4422 68.7693 70.8203 69.5808 72.0607C69.6268 72.1219 69.6727 72.1678 69.7033 72.2291C70.3311 73.1785 71.0508 74.0206 71.8011 74.6791C72.4289 75.2456 72.4902 76.2103 71.9389 76.8381C71.6327 77.1903 71.2193 77.3741 70.7905 77.3741Z" fill="#C2A74E" fill-opacity="0.1"/>
<path d="M64.7873 81.5085C62.6895 81.5085 60.6223 81.1103 58.693 80.3141C55.707 79.1197 53.3336 77.0066 52.3383 74.6638C51.7411 73.2397 51.6952 71.8157 52.2158 70.56C53.5786 67.2219 58.6164 66.1653 63.6542 68.1713C65.9358 69.0747 67.8805 70.3457 69.4117 71.9228C69.4423 71.9535 69.473 71.9994 69.5036 72.03C69.5189 72.0453 69.5342 72.0607 69.5342 72.076C69.9783 72.566 70.0702 73.301 69.7027 73.8982C69.2586 74.6178 68.3245 74.8475 67.5895 74.4035C67.4977 74.3422 67.3905 74.2657 67.2986 74.1738C67.222 74.0972 67.1455 74.0207 67.0842 73.9441C65.8745 72.7191 64.328 71.7391 62.4905 71.0041C58.8461 69.5494 55.6152 70.2232 55.0027 71.7238C54.7423 72.3363 54.9261 73.01 55.1098 73.4694C55.7683 75.0466 57.5598 76.5778 59.7802 77.466C62.0617 78.4 64.4811 78.6757 66.9464 78.2469C67.7886 78.1091 68.5695 78.6757 68.7073 79.5025C68.8452 80.3294 68.2786 81.1257 67.4517 81.2635C66.6248 81.4319 65.7061 81.5085 64.7873 81.5085Z" fill="#C2A74E" fill-opacity="0.1"/>
<path d="M85.6734 90.6041C83.6063 90.6041 81.3094 89.8997 79.2116 88.6135C76.5778 86.975 74.5566 84.7241 73.1784 81.9219C72.8109 81.1563 73.1172 80.2375 73.8828 79.8701C74.6331 79.5026 75.5519 79.8088 75.9347 80.5744C77.0525 82.856 78.7063 84.6935 80.8347 86.0257C82.8713 87.2966 85.1681 87.8325 86.8372 87.4344C87.3272 87.3119 87.9703 87.0669 88.3072 86.5004C89.1647 85.1069 87.7866 82.121 84.4637 80.0385C83.0856 79.181 81.6616 78.5685 80.2375 78.2469C80.1763 78.2469 80.1303 78.2316 80.0844 78.2163C78.6297 77.8794 77.42 77.9101 76.6544 77.9866C75.8122 78.0785 75.0619 77.466 74.97 76.6238C74.8781 75.7816 75.4906 75.0313 76.3328 74.9394C77.7109 74.8016 79.1962 74.8782 80.6356 75.1997C80.6816 75.1997 80.7428 75.2151 80.7887 75.2304C82.5956 75.6285 84.3719 76.3788 86.0869 77.4507C90.7725 80.3907 92.855 84.9691 90.9256 88.1082C90.2213 89.2566 89.0575 90.0682 87.5569 90.4204C86.9597 90.5429 86.3319 90.6041 85.6734 90.6041Z" fill="#C2A74E" fill-opacity="0.1"/>
<path d="M80.4208 78.2316C79.7011 78.2316 79.0733 77.7263 78.9202 77.0066C78.7517 76.1797 79.2877 75.3682 80.1145 75.1997H80.1299C82.3808 74.5107 84.4174 73.2244 86.0405 71.3716C87.6483 69.5953 88.5824 67.4363 88.4905 65.7213C88.4599 65.216 88.322 64.5269 87.832 64.0828C86.607 63.011 83.422 63.8378 80.8036 66.7472C79.502 68.2019 78.5527 69.7485 78.0167 71.3257C77.7411 72.1219 76.8683 72.5507 76.072 72.275C75.2758 71.9994 74.847 71.1266 75.1227 70.3303C75.7964 68.355 76.9449 66.4716 78.522 64.7107C82.1358 60.6835 87.1124 59.3972 89.8533 61.786C90.8792 62.6894 91.4611 63.991 91.553 65.5528C91.6908 68.0794 90.4964 71.0194 88.3374 73.4082C86.3314 75.6744 83.8202 77.2822 80.8802 78.155C80.8342 78.1703 80.7577 78.1857 80.7117 78.201C80.6199 78.2163 80.528 78.2316 80.4208 78.2316Z" fill="#C2A74E" fill-opacity="0.1"/>
<path d="M73.5456 81.6463C71.4784 81.6463 69.595 80.2222 69.105 78.1244C68.5384 75.6744 70.0544 73.2244 72.5044 72.6425C74.9544 72.076 77.4044 73.5919 77.9862 76.0419C78.5528 78.4919 77.0369 80.9419 74.5869 81.5238C74.2347 81.6004 73.8825 81.6463 73.5456 81.6463ZM73.5456 75.5825C73.4384 75.5825 73.3159 75.5978 73.2087 75.6285C72.4125 75.8122 71.9072 76.6238 72.0909 77.42C72.2747 78.2316 73.0709 78.7216 73.8825 78.5379C74.6787 78.3541 75.1841 77.5425 75.0003 76.731C74.8319 76.0572 74.2194 75.5825 73.5456 75.5825Z" fill="#C2A74E" fill-opacity="0.1"/>
</svg>
