<svg width="60" height="58" viewBox="0 0 60 58" fill="none" xmlns="http://www.w3.org/2000/svg">
<path fill-rule="evenodd" clip-rule="evenodd" d="M50.7266 57.8374H4.56747C2.18685 57.8374 0.235294 55.8996 0.235294 53.5052V50.5709C0.0968858 50.4325 0 50.2249 0 49.9896C0 49.5467 0.373702 49.173 0.816609 49.173H9.39792V21.4083C9.39792 19.8166 10.4775 18.474 12.083 18.0727L20.8858 15.8996V13.5329C18.4221 13.1453 16.5398 11.0138 16.5398 8.43943C16.5398 6.04497 19.4187 2.82006 21.0242 0.508637C21.3426 0.0518898 22.0484 0.0518898 22.3668 0.508637C23.9862 2.82006 26.8651 6.03113 26.8651 8.43943C26.8651 11.0138 24.9827 13.1453 22.519 13.5329V15.4983L29.827 13.6851C31.917 13.173 33.9931 14.8893 33.9931 17.0346V23.5675C34.5467 23.6782 35.0727 23.8304 35.5848 24.038C36.4429 22.9585 37.5363 22.0588 38.7682 21.4498C39.0035 21.3391 39.2664 21.3391 39.5017 21.4498C40.7336 22.0588 41.827 22.9585 42.6851 24.0519C43.9446 23.5398 45.3287 23.3045 46.7405 23.3875C46.9896 23.4152 47.2249 23.5398 47.3633 23.7612C48.1246 24.91 48.6367 26.2249 48.8304 27.5813C50.1868 27.7751 51.5017 28.2733 52.6644 29.0484C52.872 29.2007 53.0104 29.4221 53.0242 29.6851C53.1903 32.1349 52.346 34.5432 50.7543 36.3702C55.9723 38.6401 56.872 45.6574 52.4429 49.173H59.1695C60.2353 49.173 60.2353 50.8201 59.1695 50.8201H55.0588V53.5052C55.0588 55.8996 53.1073 57.8374 50.7266 57.8374ZM49.0934 37.5329L47.7647 37.3806H32.6367C30.8927 37.3806 29.481 38.8062 29.481 40.5502C29.481 42.2941 30.8927 43.7059 32.6367 43.7059H46.7405C47.8062 43.7059 47.8062 45.3529 46.7405 45.3529H32.6367C28.4567 45.3529 26.3945 40.3979 29.0242 37.3806C25.2595 37.3806 22.8235 40.2872 22.8651 43.3598C22.8927 46.5571 25.564 49.173 28.7612 49.173H47.7647C51.0173 49.173 53.6609 46.5294 53.6609 43.2768C53.6609 40.481 51.7093 38.1419 49.0934 37.5329ZM1.88235 50.8201V53.5052C1.88235 54.9861 3.08651 56.1903 4.56747 56.1903H50.7266C52.2076 56.1903 53.4118 54.9861 53.4118 53.5052V50.8201H1.88235ZM21.5917 40.9792C22.3945 38.4602 24.5536 36.4948 27.1419 35.9273C25.7993 34.1557 25.0934 31.9273 25.2457 29.6851C25.2595 29.4221 25.3979 29.2007 25.6055 29.0484C26.7682 28.2733 28.0692 27.7751 29.4394 27.5813C29.6194 26.3495 30.1176 24.7162 30.9758 23.6643C31.2803 23.2906 31.917 23.3598 32.3599 23.3737V17.0346C32.3599 15.9412 31.2803 15.0138 30.2145 15.2768L12.4706 19.6643C11.6263 19.872 11.045 20.5778 11.045 21.4083V49.173H24.083C21.6747 47.2491 20.6228 43.9273 21.5917 40.9792ZM29.1765 35.7474H38.2699C37.7301 31.7197 33.9931 28.7578 29.9654 29.173C28.872 29.2976 27.8062 29.6436 26.8651 30.1972C26.8374 32.2595 27.6955 34.3079 29.1765 35.7474ZM40 35.7474C42.4775 35.7474 45.6194 35.6782 48.0138 35.7474L48.9827 35.8443C50.5467 34.391 51.4187 32.3287 51.4048 30.1972C46.7405 27.4291 40.7059 30.3771 40 35.7474ZM21.7024 2.36331C20.3875 4.10725 18.173 6.88926 18.173 8.43943C18.173 10.391 19.7647 11.9688 21.7024 11.9688C23.6401 11.9688 25.218 10.391 25.218 8.43943C25.218 6.88926 23.0035 4.10725 21.7024 2.36331ZM38.1453 27.9688C36.7059 26.1142 34.4637 25.0069 32.0554 25.0069C31.5986 25.782 31.2803 26.6263 31.1142 27.4983C33.3979 27.5951 35.5986 28.5502 37.218 30.1557C37.4394 29.3944 37.7439 28.6609 38.1453 27.9688ZM38.5744 31.8443C38.782 32.1765 38.9619 32.5225 39.128 32.8823C40.5675 29.7266 43.7093 27.6505 47.1557 27.4983C46.9896 26.6263 46.6713 25.782 46.2145 25.0069C42.2422 24.9792 38.9481 28.0104 38.5744 31.8443ZM39.128 26.5848C39.7232 25.8927 40.4152 25.2976 41.1903 24.7993C40.609 24.1211 39.917 23.5536 39.128 23.1107C38.3529 23.5536 37.6609 24.1211 37.0796 24.7993C37.8685 25.3529 38.4913 25.8235 39.128 26.5848Z" fill="#C2A74E"/>
</svg>
