<svg width="100" height="98" viewBox="0 0 100 98" fill="none" xmlns="http://www.w3.org/2000/svg">
<path fill-rule="evenodd" clip-rule="evenodd" d="M84.5444 97.0623H7.61246C3.64475 97.0623 0.392157 93.8328 0.392157 89.842V84.9516C0.161476 84.7209 0 84.3749 0 83.9827C0 83.2445 0.622837 82.6217 1.36101 82.6217H15.6632V36.3472C15.6632 33.6943 17.4625 31.4567 20.1384 30.7878L34.8097 27.1661V23.2215C30.7036 22.5755 27.5663 19.0231 27.5663 14.7324C27.5663 10.7416 32.3645 5.36678 35.0404 1.51442C35.5709 0.75317 36.7474 0.75317 37.278 1.51442C39.9769 5.36678 44.7751 10.7186 44.7751 14.7324C44.7751 19.0231 41.6378 22.5755 37.5317 23.2215V26.4971L49.7116 23.4752C53.1949 22.6217 56.6551 25.4821 56.6551 29.0577V39.9458C57.5779 40.1303 58.4544 40.3841 59.308 40.7301C60.7382 38.9308 62.5606 37.4314 64.6136 36.4164C65.0058 36.2318 65.4441 36.2318 65.8362 36.4164C67.8893 37.4314 69.7116 38.9308 71.1419 40.7532C73.2411 39.8997 75.5479 39.5075 77.9008 39.6459C78.316 39.692 78.7082 39.8997 78.9389 40.2687C80.2076 42.1834 81.0611 44.3749 81.3841 46.6355C83.6448 46.9585 85.8362 47.7889 87.7739 49.0807C88.1199 49.3345 88.3506 49.7036 88.3737 50.1419C88.6505 54.2249 87.2434 58.2388 84.5905 61.2837C93.2872 65.0669 94.7866 76.7624 87.4048 82.6217H98.6159C100.392 82.6217 100.392 85.3668 98.6159 85.3668H91.7647V89.842C91.7647 93.8328 88.5121 97.0623 84.5444 97.0623ZM81.8224 63.2215L79.6078 62.9677H54.3945C51.4879 62.9677 49.1349 65.3437 49.1349 68.2503C49.1349 71.1569 51.4879 73.5098 54.3945 73.5098H77.9008C79.677 73.5098 79.677 76.2549 77.9008 76.2549H54.3945C47.4279 76.2549 43.9908 67.9965 48.3737 62.9677C42.0992 62.9677 38.0392 67.812 38.1084 72.9331C38.1546 78.2618 42.6067 82.6217 47.9354 82.6217H79.6078C85.0288 82.6217 89.4348 78.2157 89.4348 72.7947C89.4348 68.1349 86.1822 64.2365 81.8224 63.2215ZM3.13725 85.3668V89.842C3.13725 92.3103 5.14418 94.3172 7.61246 94.3172H84.5444C87.0127 94.3172 89.0196 92.3103 89.0196 89.842V85.3668H3.13725ZM35.9862 68.9654C37.3241 64.767 40.9227 61.4914 45.2364 60.5456C42.9988 57.5928 41.8224 53.8789 42.0761 50.1419C42.0992 49.7036 42.3299 49.3345 42.6759 49.0807C44.6136 47.7889 46.782 46.9585 49.0657 46.6355C49.3656 44.5825 50.1961 41.8604 51.6263 40.1073C52.1338 39.4844 53.1949 39.5998 53.9331 39.6228V29.0577C53.9331 27.2353 52.1338 25.6897 50.3576 26.128L20.7843 33.4406C19.3772 33.7866 18.4083 34.9631 18.4083 36.3472V82.6217H40.1384C36.1246 79.4152 34.3714 73.8789 35.9862 68.9654ZM48.6274 60.2457H63.7832C62.8835 53.5329 56.6551 48.5963 49.9423 49.2883C48.12 49.496 46.3437 50.0727 44.7751 50.9954C44.729 54.4325 46.1592 57.8466 48.6274 60.2457ZM66.6667 60.2457C70.7958 60.2457 76.0323 60.1303 80.0231 60.2457L81.6378 60.4072C84.2445 57.985 85.6978 54.5479 85.6747 50.9954C77.9008 46.3818 67.8431 51.2953 66.6667 60.2457ZM36.1707 4.60553C33.9792 7.51211 30.2883 12.1488 30.2883 14.7324C30.2883 17.985 32.9412 20.6148 36.1707 20.6148C39.4002 20.6148 42.03 17.985 42.03 14.7324C42.03 12.1488 38.3391 7.51211 36.1707 4.60553ZM63.5755 47.2814C61.1765 44.1903 57.4394 42.3449 53.4256 42.3449C52.6644 43.6367 52.1338 45.0438 51.857 46.4971C55.6632 46.6586 59.331 48.2503 62.03 50.9262C62.3991 49.6574 62.9066 48.4348 63.5755 47.2814ZM64.2907 53.7405C64.6367 54.2941 64.9366 54.8708 65.2134 55.4706C67.6125 50.2111 72.8489 46.7509 78.5928 46.4971C78.316 45.0438 77.7855 43.6367 77.0242 42.3449C70.4037 42.2987 64.9135 47.3506 64.2907 53.7405ZM65.2134 44.9746C66.2053 43.8212 67.3587 42.8293 68.6505 41.9988C67.6817 40.8685 66.5283 39.9227 65.2134 39.1845C63.9216 39.9227 62.7682 40.8685 61.7993 41.9988C63.1142 42.9216 64.1522 43.7059 65.2134 44.9746Z" fill="#C2A74E" fill-opacity="0.1"/>
</svg>
