<svg width="120" height="120" viewBox="0 0 120 120" fill="none" xmlns="http://www.w3.org/2000/svg">
<path d="M47.5259 71.5563C47.5558 71.4019 47.5757 71.2476 47.6056 71.0932C47.5857 71.2476 47.5558 71.4019 47.5259 71.5563Z" fill="#F9F3F0"/>
<path d="M13.826 100.461C13.3277 98.6498 12.7398 97.096 12.2416 95.3673C11.6537 93.3196 13.1982 91.951 13.1285 90.1194C12.9989 86.7032 8.34538 86.3739 5.91399 84.7275C4.34953 83.6676 3.36302 82.6283 2.87474 80.7864C2.39644 78.9445 3.81143 77.504 3.40287 76.0737C6.12325 73.9848 2.07757 73.9642 1.10102 73.1307C-0.941747 71.3917 0.184273 69.8585 1.83842 68.3253C5.84424 64.6107 10.9562 62.9643 16.088 62.0999C21.738 61.1429 27.7766 60.7931 33.4166 61.6986C35.9676 62.1102 43.6803 62.707 44.6867 65.5059L42.0959 64.3946C38.2894 64.2814 33.7555 64.4872 30.4771 66.5966C27.9759 68.2018 25.8135 74.0465 29.7098 75.4665C29.6001 77.3084 31.2942 77.3393 32.6195 77.3393C31.6828 79.2018 29.4706 82.8959 32.9882 83.0296C32.4501 87.5572 40.2923 80.663 41.4183 79.5825C43.4611 77.6274 46.8491 74.5096 47.5167 71.5769C47.168 73.5423 47.168 75.5489 46.6996 77.576C44.1686 88.5862 33.865 112.86 20.0838 107.571C17.0147 106.378 14.7427 103.815 13.826 100.461Z" fill="#F9F3F0"/>
<path d="M59.9425 97.1062C55.0399 91.3336 53.6548 83.8939 52.8277 76.7939C52.6982 75.662 52.4989 74.3654 52.4092 73.0998C52.8277 77.0305 56.3353 78.5843 59.4343 80.0455C62.5533 81.5169 66.3498 83.3691 69.8475 82.5871C69.698 82.052 69.8076 81.3317 69.5884 80.8584C70.0368 81.0745 70.3756 80.8584 70.824 80.9407C71.392 79.5721 70.2062 78.965 69.5983 77.9566C71.7408 76.8247 74.5409 78.6049 76.7232 76.3102C79.2044 73.6966 77.3609 72.0399 75.4177 70.2083C76.1551 69.241 75.7964 68.7265 75.2185 67.8416C71.103 61.5339 53.9936 64.343 53.9936 64.343C56.9232 61.822 72.4582 57.3973 83.2002 59.1157C88.2723 59.9286 98.9843 63.8903 98.2171 71.3299C97.9181 74.2522 91.7898 75.3738 93.155 77.8023C92.9657 77.9155 92.7663 77.9772 92.577 78.1007C93.145 80.0558 93.2347 80.7761 91.9991 82.2167C90.4047 84.0688 91.0026 83.4617 91.2716 85.8902C91.441 87.3513 90.7136 88.9051 90.5442 90.4177C90.3549 92.1156 90.325 93.9369 89.7371 95.6142C88.8303 98.2175 87.0366 100.811 85.2031 102.93C84.0771 104.217 83.27 104.999 81.6557 105.451C80.9781 105.647 80.0115 105.554 79.4933 105.709C78.6663 105.956 77.9687 106.573 77.2612 106.779C72.6276 108.075 63.0316 100.749 59.9425 97.1062Z" fill="#F9F3F0"/>
<path d="M39.7343 47.7763C40.5713 54.722 46.3907 63.026 46.3907 63.026C39.256 59.4451 34.4829 53.0962 30.4173 45.5434C26.9794 39.1328 21.4988 25.9719 28.9525 20.9504C29.7397 20.4256 30.208 20.2507 31.1746 20.1478C31.6529 20.0963 33.4764 20.652 33.7255 20.5697C35.1206 20.0963 35.4993 18.1515 37.263 18.0075C38.6481 17.8943 40.0232 19.6539 41.2589 19.6333C42.7337 19.5921 43.5308 17.6473 44.7166 16.7521C48.7922 13.6754 50.2371 16.5154 53.8942 17.6268C55.638 18.1618 57.0032 16.8962 58.3584 19.2629C59.2651 20.8475 58.5577 24.4078 61.0787 23.8625C61.1983 24.2432 61.3578 24.521 61.4873 24.8915C64.8155 25.2207 67.2668 22.4219 70.7246 24.4902C72.7674 25.7249 72.5182 26.898 73.5845 28.6576C74.3219 29.8718 76.544 31.0346 76.0956 32.5472C81.2872 36.3648 72.588 47.2515 69.7281 50.7913C65.244 56.3478 58.2587 58.2618 52.5589 60.4947C54.9604 57.3665 57.1028 54.6088 58.8466 50.6884C59.584 49.0317 60.7898 46.4489 60.7698 44.5247C60.7499 42.8886 59.6339 39.5238 58.0395 41.5303C57.2722 41.0775 56.475 40.4499 55.7277 39.9662C55.4985 40.6145 54.9504 40.8923 54.781 41.6229C53.4059 41.0158 51.7517 38.8549 50.1076 39.7193C48.6128 40.5116 48.7823 43.6603 47.9452 44.8745C46.8491 44.3703 46.7395 43.2899 46.042 42.6519C44.607 41.3245 45.6733 41.7773 43.9195 41.9316C41.1692 42.1786 39.3456 44.5144 39.7343 47.7763Z" fill="#F9F3F0"/>
<path d="M0.492776 56.7696C0.303446 55.082 -0.364192 53.4459 0.911293 51.9333C1.95759 50.6779 3.75124 50.9558 4.62813 49.6592C3.01385 47.8276 2.79463 46.9118 3.4523 44.7406C3.92064 43.1663 5.16623 42.3328 5.72426 40.9539C6.51147 38.9988 5.8837 37.548 8.03608 36.2205C9.85963 35.0887 11.2248 35.9324 12.9885 35.7987C14.7922 35.6649 15.4 34.7697 17.1937 34.7182C18.8478 34.6668 20.9803 35.4488 22.3454 36.3749C24.8665 38.0727 25.3747 41.9829 27.846 43.3206L28.2545 45.6256C28.0652 44.2056 28.7129 46.706 28.9122 47.0764C29.4304 48.0231 30.098 48.8052 30.2574 49.865C29.3805 49.5255 28.8624 49.8444 28.1051 50.3795C28.2944 50.6265 28.4239 51.0072 28.6033 51.2645C25.5342 51.8098 26.5505 54.3103 25.4445 56.2242C24.9861 57.0268 21.608 59.3729 24.6772 60.2476C17.7816 60.0624 10.2482 60.3916 4.58828 64.2504C2.00742 62.4496 0.831577 59.7537 0.492776 56.7696Z" fill="#F9F3F0"/>
<path d="M75.8166 56.1935C75.8963 55.9259 75.8863 55.504 75.986 55.185C74.8301 54.0532 71.4222 55.7613 70.0271 56.1935C69.5887 56.6051 70.0869 56.2552 70.2463 56.3787L64.7856 57.5517C68.5822 55.4629 72.0599 53.3226 74.8799 49.8137C77.3312 46.7679 79.7228 38.6697 84.4859 40.5836C84.5457 41.0672 84.8347 41.3142 84.9044 41.767C86.9173 41.7361 88.422 41.1393 90.1758 41.9625C91.9097 42.7754 92.4079 44.5452 94.351 44.8437C92.657 49.7622 100.868 54.0017 96.3439 59.0438C96.5432 59.6303 96.324 60.3815 96.4436 60.9577C93.7332 61.0503 89.8071 58.0971 87.2063 56.9138C83.1407 55.0513 79.9619 55.8333 75.8166 56.1935Z" fill="#F9F3F0"/>
<path d="M43.2018 118.098C41.4679 116.132 40.87 114.867 39.7739 112.685C38.907 110.977 37.482 110.761 37.9902 108.384C37.0934 108.281 36.6251 107.777 36.2065 106.974C38.3689 103.414 41.4679 100.193 43.0722 96.3345C44.7463 92.3008 45.2645 88.3289 46.4702 84.3364L47.2773 85.0567C47.3571 85.2316 47.656 86.5076 47.7158 87.3205C50.207 90.5721 50.5358 86.2195 52.2398 84.7274C52.3693 85.6844 52.5786 86.5693 52.7281 87.5263C53.8541 94.5543 57.3118 101.593 63.3305 105.935C66.2303 108.024 71.5116 107.725 68.5222 111.934C67.3762 113.55 65.9014 115.289 63.9284 115.587C62.912 115.741 59.3845 115.7 59.0656 115.186C57.6008 116.842 55.6477 116.348 53.6448 116.174C51.7216 117.624 50.8946 118.581 48.5728 119.343C45.7129 120.269 45.3243 120.506 43.2018 118.098Z" fill="#F9F3F0"/>
<path d="M49.9483 64.5283C50.4366 64.1991 51.2637 64.4357 51.3932 65.0634C51.4331 65.0428 51.473 65.0325 51.5128 65.012C52.021 64.8062 52.6887 65.3412 52.5193 65.9175C52.3598 66.4526 52.2004 67.0082 51.9513 67.5021C51.9812 67.5742 51.9712 67.6565 51.9314 67.7388C51.8516 67.8931 51.742 68.0063 51.6224 68.099C51.453 68.5106 51.2039 68.8707 50.8452 69.1485C50.2274 69.6219 49.3604 69.4881 48.8124 68.9736C47.3177 67.5639 48.623 65.4133 49.9483 64.5283Z" fill="#F9F3F0"/>
<path d="M44.8261 69.982C45.1051 69.663 45.4239 69.3646 45.8524 69.272C46.1514 69.1999 46.4603 69.3028 46.5699 69.6218C46.6695 69.9099 46.5201 70.2804 46.2311 70.3627C46.2112 70.3627 46.0617 70.4244 46.0716 70.4141C46.0218 70.445 45.982 70.4759 45.9421 70.5068C45.982 70.4862 45.8624 70.5891 45.8524 70.6097C45.8026 70.6611 45.7627 70.7125 45.7229 70.7743C45.5136 71.0315 45.125 71.0521 44.8958 70.836C44.6467 70.6302 44.6168 70.2289 44.8261 69.982Z" fill="#F9F3F0"/>
<path d="M41.8865 69.4984C41.9861 69.0662 42.1854 68.6237 42.574 68.3973C42.9427 68.1812 43.4211 68.1709 43.6104 68.6237C43.6602 68.7472 43.5805 68.8604 43.4709 68.9118C43.3513 68.9736 43.2516 69.025 43.1022 69.0044C43.0225 68.9941 42.9627 69.0044 42.883 69.0456C42.6737 69.1279 42.5641 69.4366 42.5043 69.6321C42.3947 70.0231 41.7868 69.9202 41.8865 69.4984Z" fill="#F9F3F0"/>
<path d="M44.3876 69.2102C43.7798 68.6134 43.5008 67.6153 44.2481 67.0082C44.4673 66.8332 44.7464 66.7509 45.0353 66.7509C45.115 66.4422 45.2446 66.1335 45.3642 65.8557C45.5934 65.3412 46.1414 65.3721 46.4503 65.6705C46.4902 65.6499 46.53 65.6396 46.5699 65.619C46.8489 65.5058 47.2774 65.7425 47.2475 66.0821C47.2076 66.6686 47.2077 67.2654 47.0084 67.8313C46.8489 68.2944 46.4304 68.634 46.1016 68.953C45.9023 69.1485 45.6731 69.1896 45.4738 69.1279C45.2047 69.4366 44.7065 69.5292 44.3876 69.2102Z" fill="#F9F3F0"/>
<path d="M49.0211 70.7228C48.9514 70.517 48.8916 70.3112 48.9215 70.0951C48.9414 69.8996 49.051 69.7452 49.1905 69.632C49.33 69.5188 49.5493 69.4983 49.7087 69.5497C49.908 69.6012 50.187 69.7349 50.2866 69.9305C50.3663 70.0745 50.3963 70.2391 50.3166 70.3935C50.2269 70.5787 50.0176 70.6919 49.8183 70.6405C49.7585 70.6199 49.6987 70.5993 49.6489 70.5684C49.6389 70.5993 49.629 70.6405 49.619 70.6713C49.5592 70.9903 49.1208 71.0315 49.0211 70.7228Z" fill="#F9F3F0"/>
<path d="M49.2204 72.4103C49.4995 71.7518 50.2169 71.1447 50.9443 71.2476C51.1835 71.2784 51.3628 71.5254 51.3828 71.7621C51.4027 72.0296 51.2433 72.2354 51.0141 72.328C50.8447 72.4103 50.6653 72.4103 50.5059 72.5132C50.3564 72.6058 50.2568 72.7499 50.187 72.9042C49.898 73.5628 48.9514 73.0792 49.2204 72.4103Z" fill="#F9F3F0"/>
<path d="M50.4264 71.052C50.267 68.9734 51.2834 67.0286 53.2863 66.4215C54.0636 66.1951 54.7611 66.8125 54.6515 67.646C54.5917 68.0576 54.6017 68.4898 54.4821 68.8808C54.3725 69.2718 54.1831 69.6114 53.944 69.9201C53.5653 70.8565 52.798 71.5356 51.662 71.8752C51.0841 72.0604 50.4862 71.7003 50.4264 71.052Z" fill="#F9F3F0"/>
<path d="M49.29 59.8152C49.3213 59.8361 49.3213 59.8257 49.29 59.8152V59.8152Z" fill="#F9F3F0"/>
<path d="M47.676 62.3159C47.4269 61.7499 47.4568 61.1223 47.2077 60.5563C47.0183 60.1241 47.3871 59.6302 47.8155 59.5993C47.975 59.589 48.1344 59.5993 48.2938 59.6096C48.3436 59.5788 48.3935 59.5582 48.4433 59.5376C48.6526 59.4656 48.8519 59.5479 48.9715 59.7022C49.0312 59.7125 49.2305 59.8051 49.2903 59.8257C49.4996 59.9286 49.5793 60.1653 49.5494 60.3814C49.5095 60.7004 49.3003 60.8856 49.0512 60.9988C49.0013 61.4104 48.9017 61.822 48.822 62.2336C48.7024 62.8613 47.9052 62.851 47.676 62.3159Z" fill="#F9F3F0"/>
<path d="M57.8605 69.3646C57.7708 69.4058 57.6812 69.4572 57.5915 69.4984C57.3125 69.663 56.9737 69.6321 56.7744 69.344C56.605 69.0765 56.6548 68.6752 56.9338 68.5003C57.4819 68.1607 58.0598 67.8932 58.6079 67.5536C59.0065 67.3066 59.5944 67.533 59.6143 68.0578C59.6243 68.4591 59.5047 68.9119 59.2357 69.2206C58.9965 69.4881 58.6976 69.8174 58.3388 69.8585C58.1993 69.8688 58.0698 69.7968 57.9801 69.6836C57.9103 69.5704 57.8705 69.4675 57.8605 69.3646Z" fill="#F9F3F0"/>
<path d="M50.6553 64.7958C50.6752 64.4254 50.6852 64.0549 50.7151 63.6845C49.9976 63.7977 49.3001 63.0774 49.6688 62.2851C49.9378 61.6985 50.7649 61.1326 51.4126 61.3075C51.6119 61.2252 51.8012 61.1429 51.9906 61.04C52.3592 60.8445 52.7479 60.8136 53.0767 61.1017C53.2162 61.2252 53.3059 61.3898 53.3457 61.5648C53.4155 61.6059 53.4853 61.6471 53.545 61.6985C53.7942 61.8529 53.9237 62.0896 53.8739 62.3983C53.6746 63.7051 52.9173 64.7032 51.861 65.4132C51.4325 65.7013 50.6254 65.4441 50.6553 64.7958Z" fill="#F9F3F0"/>
<path d="M41.6775 69.6218C41.5181 69.4263 41.5081 69.1587 41.5281 68.9118C41.548 68.6031 41.817 68.3973 42.0861 68.3561C42.4149 68.3047 42.7437 68.531 42.8534 68.8294C42.9729 69.169 42.7437 69.4468 42.4448 69.5086V69.5189C42.4249 69.6423 42.4249 69.6732 42.4349 69.807C42.4548 70.0231 42.2256 70.1054 42.0661 69.9922C41.9266 69.8893 41.7971 69.7658 41.6775 69.6218Z" fill="#F9F3F0"/>
<path d="M91.4112 37.0952C92.7066 37.3524 95.6064 34.7799 96.7124 33.3805C97.2107 32.7425 98.4264 31.2505 98.1573 30.2627C97.8185 28.9867 96.7324 29.6144 95.6163 29.7276C96.3836 28.4413 101.067 23.6565 97.0811 24.4488C94.2412 25.0148 91.172 26.6509 88.7207 28.1738C87.3854 29.0073 85.6117 29.9745 84.8345 31.3534C85.3427 30.489 85.5121 29.3468 85.9007 28.3281C86.7078 26.229 88.0431 24.3254 89.2987 22.504C91.3514 19.4994 93.3842 17.3591 96.3836 15.4348C99.094 13.6855 102.143 12.6874 104.824 11.2674C105.621 12.8829 104.644 14.7866 104.066 16.3095C106.847 14.2 109.936 13.7164 113.294 13.5209C115.516 13.3871 118.356 12.7697 120 11.041C118.167 13.7782 117.031 17.2665 115.456 20.1888C113.324 24.1607 110.494 27.8136 107.464 31.0653C103.538 35.2636 96.3936 39.5751 90.6041 38.2271L91.4112 37.0952Z" fill="#F9F3F0"/>
<path d="M74.581 14.2104C74.9098 9.42558 77.8694 2.72682 81.9151 -1.14441e-05C81.8852 0.843763 83.3799 6.01962 83.7586 7.90267C84.7251 12.6155 84.1073 17.1842 82.4332 21.5677C82.5628 19.8699 81.0581 15.1674 79.0452 17.1945C77.142 19.0981 77.9491 26.1056 77.9491 26.1056C75.0892 23.3273 74.302 18.1823 74.581 14.2104Z" fill="#F9F3F0"/>
</svg>
