<svg width="40" height="49" viewBox="0 0 40 49" fill="none" xmlns="http://www.w3.org/2000/svg">
<path d="M39.2166 48.1951H26.9654C26.597 48.1951 26.2285 47.9186 26.2285 47.4579V43.9562C26.2285 43.5876 26.5048 43.2189 26.9654 43.2189H39.2166C39.585 43.2189 39.9535 43.4954 39.9535 43.9562V47.4579C39.9535 47.9186 39.6772 48.1951 39.2166 48.1951ZM27.7944 46.8128H38.5718V44.7855H27.7944V46.8128Z" fill="#C2A74E"/>
<path d="M18.8599 30.3177C18.4915 30.3177 18.123 30.0412 18.123 29.5804V24.8808C18.123 24.5122 18.3994 24.1436 18.8599 24.1436C19.2284 24.1436 19.5969 24.42 19.5969 24.8808V29.5804C19.5969 30.0412 19.3205 30.3177 18.8599 30.3177Z" fill="#C2A74E"/>
<path d="M22.5445 34.188C22.1761 34.188 21.8076 33.9116 21.8076 33.4509V24.8808C21.8076 24.5122 22.084 24.1436 22.5445 24.1436C22.913 24.1436 23.2814 24.42 23.2814 24.8808V33.4509C23.2814 33.9116 23.0051 34.188 22.5445 34.188Z" fill="#C2A74E"/>
<path d="M26.3209 34.1881C25.9525 34.1881 25.584 33.9117 25.584 33.451V24.973C25.584 24.6044 25.8603 24.2358 26.3209 24.2358C26.6894 24.2358 27.0578 24.5122 27.0578 24.973V33.451C26.9657 33.9117 26.6894 34.1881 26.3209 34.1881Z" fill="#C2A74E"/>
<path d="M30.0055 26.4474C29.637 26.4474 29.2686 26.171 29.2686 25.7102V19.1675C27.7947 18.7989 25.7682 17.5087 25.584 14.8363C25.584 14.4677 25.8604 14.0991 26.2288 14.0991C26.5973 14.0991 26.9657 14.3756 26.9657 14.7442C27.1499 17.4166 29.9134 17.7852 30.0055 17.8774C30.3739 17.9695 30.6503 18.246 30.6503 18.6146V25.8024C30.6503 26.0788 30.3739 26.4474 30.0055 26.4474Z" fill="#C2A74E"/>
<path d="M10.8459 33.8196C10.7538 33.8196 10.5696 33.8195 10.4774 33.7274L0.344908 27.0003C-0.0235477 26.816 -0.115666 26.3553 0.160676 25.9867L2.37143 22.6692C2.46354 22.4849 2.64776 22.3928 2.83199 22.3928C3.01622 22.3928 3.20043 22.3928 3.38465 22.4849L13.5172 29.212C13.7014 29.3042 13.7935 29.4884 13.7935 29.6727C13.7935 29.857 13.7936 30.0413 13.7014 30.2256L11.4907 33.5431C11.3065 33.7274 11.1222 33.8196 10.8459 33.8196ZM1.72663 26.171L10.7538 32.1608L12.2276 30.0413L3.20046 24.0515L1.72663 26.171Z" fill="#C2A74E"/>
<path d="M11.7674 29.5806C11.6752 29.5806 11.491 29.5806 11.3989 29.4885L3.93768 24.5123C3.56923 24.328 3.47711 23.8672 3.75345 23.4986L5.77997 20.3654L11.491 8.9387C12.1358 7.55643 13.3333 6.54277 14.8071 5.98986L16.6494 5.34481C16.8337 5.25266 17.11 5.34483 17.2942 5.43698C17.4784 5.52913 17.5706 5.80556 17.5706 5.98986V8.20147C17.5706 8.84653 17.5706 9.49165 17.4785 10.1367C17.4785 10.321 17.3863 10.5053 17.2021 10.5974C16.9257 10.8739 16.7415 11.1504 16.7415 11.4268L17.2021 16.4029L19.1365 13.362C19.505 12.8091 20.1498 12.3483 20.7946 12.2562C21.4394 12.164 22.1763 12.2562 22.729 12.7169C23.9264 13.5463 24.2028 15.205 23.4658 16.3108L18.9523 23.13C18.3996 23.9594 17.6627 24.6044 16.7415 25.0652L14.3466 26.171L12.4122 29.1198C12.228 29.4885 11.9516 29.5806 11.7674 29.5806ZM5.22727 23.6829L11.491 27.8297L13.1491 25.2495C13.2412 25.1574 13.3333 25.0652 13.4254 24.973L16.0046 23.8672C16.6494 23.5908 17.2021 23.13 17.6627 22.4849L22.1763 15.6658C22.5447 15.1129 22.3605 14.3757 21.8078 14.007C21.5314 13.8227 21.2551 13.7306 20.9788 13.8227C20.7024 13.9149 20.4261 14.007 20.2419 14.2835L17.8469 17.8774C17.5706 18.3381 17.11 18.5225 16.5573 18.3382C16.0967 18.246 15.7283 17.7853 15.6362 17.3245L15.0835 11.7033C14.9914 11.0582 15.2677 10.4131 15.8204 9.8602C15.9125 9.30729 15.9125 8.84655 15.9125 8.29364V7.00353L14.9914 7.27997C13.886 7.64858 13.057 8.47792 12.5043 9.49158L6.79323 20.9184V21.0105L5.22727 23.6829Z" fill="#C2A74E"/>
<path d="M24.3868 37.7821C24.2026 37.7821 24.1105 37.7821 23.9262 37.7821C22.913 37.5978 22.084 36.7684 21.8997 35.7547C21.4392 36.0312 20.7944 36.1233 20.2417 36.0312C19.0442 35.8469 18.1231 34.7411 18.1231 33.4509V31.9765C17.6625 32.2529 17.1098 32.253 16.5571 32.1608C15.3596 31.9765 14.4385 30.8707 14.4385 29.5805V25.1573C14.4385 24.8809 14.6227 24.6044 14.899 24.5123L16.0965 23.9594C16.7413 23.6829 17.294 23.2222 17.7546 22.5771L22.2682 15.7579C22.6366 15.2049 22.4524 14.4677 21.8997 14.0991C21.6234 13.9148 21.347 13.8227 21.0707 13.9149C20.7944 14.007 20.518 14.0992 20.3338 14.3756L17.9388 17.9695C17.6625 18.4303 17.2019 18.6146 16.6492 18.4302C16.1887 18.3381 15.8202 17.8773 15.7281 17.4166L15.4517 13.2698C15.4517 13.1777 15.4517 13.0855 15.4517 12.9934C15.7281 12.0718 15.9123 11.0582 16.0044 10.1367C16.0044 10.1367 16.0044 10.1367 16.0044 10.0445C16.0044 9.76807 16.0044 9.58377 16.0965 9.39947C16.0965 9.03086 16.0965 8.66223 16.0965 8.29363V0.737227C16.0965 0.368622 16.3729 0 16.8335 0H30.0058C30.3742 0 30.7427 0.276471 30.7427 0.737227V10.7817L33.7824 14.007C34.8878 15.205 35.4405 16.6794 35.4405 18.3381V19.2596C35.4405 19.3518 35.4405 19.3518 35.4405 19.4439V25.1573C35.4405 25.2495 35.4405 25.2494 35.4405 25.3416V25.5259C35.4405 27.1847 34.243 28.5669 32.677 28.7512C31.4796 28.8434 30.2821 28.1983 29.7294 27.0925C29.7294 27.0003 29.6373 27.0004 29.6373 26.9082C29.6373 26.8161 29.5452 26.6318 29.4531 26.5396C29.4531 26.5396 29.4531 26.5396 29.4531 26.4474C29.2688 26.171 28.9004 25.9866 28.5319 25.9866C27.8871 25.9866 27.3345 26.5396 27.3345 27.1847V34.1881C27.3345 34.3724 27.2423 34.5567 27.1502 34.6489V35.1097C27.1502 35.8469 26.7818 36.5841 26.2291 37.0448C25.5843 37.5977 25.0316 37.7821 24.3868 37.7821ZM23.2814 33.543V35.2018C23.2814 35.7547 23.6499 36.3076 24.2026 36.3998C24.571 36.4919 24.8474 36.3998 25.1237 36.1233C25.4 35.939 25.4922 35.5704 25.4922 35.2939V33.543C25.4922 33.3587 25.5843 33.1745 25.6764 33.0823V27.3689C25.6764 25.9867 26.8739 24.7887 28.2556 24.6965C28.8083 24.6965 29.2688 24.7887 29.6373 25.0651C30.0979 24.973 30.4663 25.3416 30.4663 25.8024C30.4663 25.8945 30.4663 25.9867 30.4663 26.0788C30.5584 26.2631 30.6505 26.4474 30.7427 26.6317C31.1111 27.1846 31.6638 27.4611 32.3086 27.4611C33.1376 27.3689 33.7824 26.6317 33.7824 25.7102V25.618C33.7824 25.5259 33.7824 25.5259 33.7824 25.4338V19.3518C33.7824 19.2597 33.7824 19.2596 33.7824 19.1675V18.4302C33.7824 17.1401 33.3218 15.9422 32.4928 15.1128L29.2688 11.6111C29.1767 11.5189 29.0846 11.3346 29.0846 11.1503V1.47445H17.3861V8.29363C17.3861 8.66223 17.3861 9.03081 17.3861 9.49157C17.3861 9.76802 17.3861 9.95234 17.294 10.2288V10.321C17.294 10.321 17.294 10.321 17.294 10.4131C17.2019 11.4268 17.0177 12.3483 16.7413 13.362L17.0177 16.5873L18.9521 13.5462C19.3205 12.9933 19.9653 12.5326 20.6101 12.4405C21.2549 12.3483 21.9918 12.4404 22.5445 12.9012C23.742 13.7305 24.0183 15.3893 23.2814 16.4951L18.7678 23.3143C18.2152 24.1436 17.4782 24.7887 16.5571 25.2495L15.8202 25.618V29.5805C15.8202 30.1334 16.1886 30.6864 16.7413 30.7786C17.1098 30.8707 17.3861 30.7786 17.6625 30.5021C17.9388 30.3178 18.0309 29.9492 18.0309 29.6727C18.0309 29.3041 18.3073 28.9355 18.7678 28.9355C19.1363 28.9355 19.5047 29.212 19.5047 29.6727V33.4509C19.5047 34.0039 19.8732 34.5567 20.4259 34.6489C20.7944 34.741 21.0707 34.6489 21.347 34.3724C21.6234 34.1881 21.7155 33.8195 21.7155 33.543C21.7155 33.1744 21.9919 32.8059 22.4524 32.8059C23.0051 32.8059 23.2814 33.0823 23.2814 33.543Z" fill="#C2A74E"/>
<path d="M37.6506 44.7854H28.6234C28.255 44.7854 27.8865 44.509 27.8865 44.0482V40.4543L26.5048 38.2427C25.9521 37.4133 25.6758 36.3997 25.6758 35.386L25.7679 27.1846C25.7679 25.8023 26.9654 24.6043 28.3471 24.5122C29.084 24.5122 29.7288 24.7887 30.1893 25.2494C30.6499 25.7102 30.9263 26.3552 30.9263 27.0924V30.6863L34.0582 26.816C34.2424 26.5395 34.2424 25.9866 34.0582 25.618C33.966 25.5258 33.9661 25.4337 33.9661 25.2494V19.1674C33.9661 18.891 34.1503 18.6145 34.4266 18.5224C34.703 18.4302 35.0714 18.5223 35.2556 18.7988L38.8481 23.3142C39.7692 24.5122 40.1377 26.0788 39.9534 27.5532L38.3875 40.1779V43.9561C38.3875 44.4169 38.0191 44.7854 37.6506 44.7854ZM29.3604 43.3111H36.9137V40.27V40.1779L38.4796 27.461C38.6639 26.2631 38.2954 25.1573 37.6506 24.2358L35.3477 21.379V25.1573C35.7162 25.8945 35.7162 27.0003 35.1635 27.8296L31.6632 32.2529C31.2947 32.6215 30.8342 32.8058 30.3736 32.6215C29.913 32.4372 29.6367 31.9765 29.6367 31.5157V27.1846C29.6367 26.9081 29.5446 26.6316 29.2682 26.3552C29.084 26.1709 28.7155 25.9866 28.4392 26.0788C27.7944 26.0788 27.2417 26.6316 27.2417 27.2767L27.1496 35.4782C27.1496 36.2154 27.3338 36.9526 27.7023 37.5055L29.1761 39.9014C29.2682 39.9936 29.2682 40.1779 29.2682 40.27V43.3111H29.3604Z" fill="#C2A74E"/>
<path d="M24.387 11.7033C24.2028 11.7033 23.9264 11.6111 23.8343 11.4268C22.9132 10.1367 21.0709 10.6896 20.9788 10.6896C20.6103 10.7818 20.2419 10.5974 20.0577 10.2288C19.9655 9.86021 20.1498 9.49162 20.5182 9.30732C20.6103 9.30732 23.4659 8.47795 24.9397 10.5974C25.1239 10.966 25.0318 11.3346 24.7555 11.6111C24.6634 11.7032 24.4791 11.7033 24.387 11.7033Z" fill="#C2A74E"/>
<path d="M37.9278 16.6794C37.8357 16.6794 37.8357 16.6794 37.7436 16.6794C37.3751 16.5872 37.0988 16.2186 37.1909 15.85C37.4672 14.2834 35.8092 13.3619 35.7171 13.2698C35.3486 13.0855 35.2565 12.6247 35.4407 12.2561C35.625 11.8875 36.0855 11.7954 36.454 11.9797C36.5461 12.0718 39.1253 13.5463 38.5726 16.0343C38.5726 16.4029 38.2963 16.6794 37.9278 16.6794Z" fill="#C2A74E"/>
<path d="M18.5837 39.9015C16.6493 39.9015 15.4518 38.4272 14.9912 37.4135C14.807 37.0449 14.9912 36.6762 15.3597 36.4919C15.7281 36.3076 16.0966 36.4919 16.2808 36.8605C16.3729 37.0448 17.3862 39.0722 19.4127 38.335C19.7811 38.2428 20.1496 38.4271 20.3338 38.7957C20.4259 39.1643 20.2417 39.533 19.8732 39.7173C19.4127 39.8094 18.9521 39.9015 18.5837 39.9015Z" fill="#C2A74E"/>
</svg>
