<svg width="40" height="53" viewBox="0 0 40 53" fill="none" xmlns="http://www.w3.org/2000/svg">
<path d="M21.5512 24.5276C21.4572 24.5276 21.2692 24.5275 21.1752 24.4335C20.8932 24.2454 20.7051 23.7752 20.9872 23.3991C21.0812 23.305 22.4913 21.142 26.8156 21.7062C27.1916 21.8003 27.4737 22.0824 27.4737 22.5526C27.3797 22.9288 27.0976 23.2109 26.6276 23.2109C23.2433 22.7407 22.2093 24.1514 22.2093 24.2454C22.0213 24.3395 21.8332 24.5276 21.5512 24.5276Z" fill="#C2A74E"/>
<path d="M24.2774 27.7245C23.1493 27.7245 22.3032 27.5364 22.2092 27.5364C21.8332 27.4424 21.5512 27.0662 21.6452 26.69C21.7392 26.3139 22.1152 26.0317 22.4912 26.1257C22.4912 26.1257 25.5935 26.784 27.1916 25.4674C27.4736 25.1853 27.9437 25.2793 28.2257 25.5615C28.5077 25.8436 28.4137 26.3138 28.1317 26.596C27.0976 27.5364 25.5935 27.7245 24.2774 27.7245Z" fill="#C2A74E"/>
<path d="M18.449 24.5276C18.261 24.5276 17.979 24.4335 17.8849 24.2454C17.7909 24.1514 16.7569 22.7407 13.4666 23.2109C13.0906 23.305 12.7146 23.0228 12.6206 22.5526C12.5265 22.1764 12.8086 21.8003 13.2786 21.7062C17.6969 21.142 19.107 23.305 19.107 23.3991C19.2951 23.7752 19.201 24.1514 18.919 24.4335C18.731 24.4335 18.543 24.5276 18.449 24.5276Z" fill="#C2A74E"/>
<path d="M15.7224 27.7248C14.5003 27.7248 12.9021 27.5367 11.7741 26.5022C11.492 26.22 11.398 25.7498 11.68 25.4677C11.9621 25.1855 12.4321 25.0915 12.7141 25.3737C14.0302 26.5022 16.5684 26.2201 17.4145 26.032C17.7905 25.9379 18.1665 26.2201 18.2606 26.5962C18.3546 26.9724 18.0725 27.3486 17.6965 27.4427C17.6965 27.5367 16.7564 27.7248 15.7224 27.7248Z" fill="#C2A74E"/>
<path d="M20.047 33.1795C19.4829 33.1795 18.9189 32.9914 18.4489 32.5212L18.0728 32.2391C17.7908 31.9569 17.7908 31.4867 18.0728 31.2046C18.3549 30.9224 18.8249 30.9224 19.1069 31.2046L19.4829 31.4867C19.859 31.7688 20.329 31.7688 20.705 31.4867L21.0811 31.2046C21.3631 30.9224 21.8331 30.9224 22.1152 31.2046C22.3972 31.4867 22.3972 31.9569 22.1152 32.2391L21.7391 32.5212C21.1751 32.8974 20.611 33.1795 20.047 33.1795Z" fill="#C2A74E"/>
<path d="M20.0466 37.8815H19.9526C19.5766 37.8815 18.0725 37.7875 16.7564 36.4709C16.5684 36.2828 16.5684 36.0946 16.5684 35.9065C16.5684 35.7185 16.6624 35.5304 16.8504 35.3423C16.9444 35.2483 17.9785 34.4018 20.0466 34.3078H20.1406C22.2088 34.4959 23.2429 35.2483 23.3369 35.3423C23.5249 35.4363 23.6189 35.6244 23.6189 35.9065C23.6189 36.0946 23.5249 36.2828 23.4309 36.4709C21.9268 37.7875 20.4226 37.8815 20.0466 37.8815ZM20.0466 36.3768C20.1406 36.3768 20.7047 36.3768 21.4567 36.0006C21.0807 35.9066 20.6107 35.8125 20.0466 35.7185C19.4826 35.7185 19.0125 35.9066 18.6365 36.0006C19.3886 36.3768 19.9526 36.3768 20.0466 36.3768C19.9526 36.3768 19.9526 36.3768 20.0466 36.3768Z" fill="#C2A74E"/>
<path d="M20.0468 39.9507C19.8588 39.9507 19.5768 39.9508 19.2948 39.8567C18.9187 39.7627 18.7307 39.2924 18.8247 38.9162C18.9187 38.54 19.3888 38.352 19.7648 38.446C19.8588 38.446 19.9528 38.446 20.0468 38.446C20.1408 38.446 20.3289 38.446 20.3289 38.446C20.7049 38.352 21.0809 38.54 21.2689 38.9162C21.3629 39.2924 21.1749 39.6686 20.7989 39.8567C20.4229 39.9508 20.1408 39.9507 20.0468 39.9507Z" fill="#C2A74E"/>
<path d="M20.0472 43.3362C18.6371 43.3362 17.133 42.866 15.9109 41.9255C5.85211 34.1198 7.92026 24.6213 8.01427 24.2451C8.10828 23.7749 10.7405 13.1478 28.7898 10.6086C28.9778 10.6086 29.1659 10.6085 29.3539 10.7966C29.5419 10.9847 34.9003 15.593 32.2681 25.3737C32.5501 28.195 32.2681 35.6245 24.1835 41.9255C22.8674 42.866 21.4573 43.3362 20.0472 43.3362ZM19.0131 14.8406C10.9285 18.6964 9.42437 24.4332 9.42437 24.5272C9.33037 24.9034 7.54422 33.5556 16.8509 40.7971C18.7311 42.3018 21.3633 42.3018 23.2434 40.7971C32.2681 33.8377 30.764 25.2796 30.67 24.6213C28.3198 18.2262 20.5172 15.4049 19.0131 14.8406ZM20.9872 14.0882C23.7134 15.2167 28.7898 17.85 31.328 22.6463C32.2681 16.3453 29.4479 13.0537 28.6018 12.2073C25.5936 12.5835 23.1494 13.2418 20.9872 14.0882Z" fill="#C2A74E"/>
<path d="M8.67169 25.0913C8.38967 25.0913 8.10765 24.9031 8.01365 24.621C7.91964 24.3389 5.66346 18.5081 8.38966 12.7713C10.2698 8.82141 14.1241 5.90605 19.7645 4.21324C20.1406 4.11919 20.5166 4.30724 20.7046 4.68342C20.7986 5.0596 20.6106 5.43577 20.2346 5.62386C14.9702 7.22263 11.3979 9.85591 9.70578 13.4296C7.26159 18.6021 9.32974 24.0568 9.42375 24.0568C9.61176 24.4329 9.42374 24.8091 9.04771 24.9972C8.8597 25.0912 8.7657 25.0913 8.67169 25.0913Z" fill="#C2A74E"/>
<path d="M28.8836 12.1133C28.6955 12.1133 28.4135 12.0193 28.3195 11.8312C28.1315 11.549 28.1315 11.0788 28.5075 10.7967C28.7896 10.6086 31.2337 8.72766 29.1656 5.34204C27.6615 2.89686 22.9611 1.29815 19.6709 2.2386C18.0727 2.61478 16.1926 3.83735 16.1926 6.84679C16.1926 7.22297 15.8166 7.59917 15.4405 7.59917C15.0645 7.59917 14.6885 7.22297 14.6885 6.84679C14.7825 3.7433 16.3806 1.58027 19.2948 0.82791C23.2431 -0.206586 28.6015 1.58029 30.4817 4.58973C32.7378 8.25749 30.7637 10.9848 29.3536 11.9252C29.1656 12.0193 28.9776 12.1133 28.8836 12.1133Z" fill="#C2A74E"/>
<path d="M20.0471 52.1765C15.2527 52.1765 11.3984 50.0135 11.3984 47.2862C11.3984 47.004 11.4925 46.816 11.6805 46.7219C14.9707 44.4648 14.2187 40.5149 14.1247 40.3268C14.1247 40.1387 14.1247 39.8566 14.3127 39.6685C14.5947 39.3864 15.0647 39.2923 15.3467 39.5745C15.8168 40.0447 16.2868 40.4209 16.7569 40.7971C18.637 42.3018 21.2692 42.3018 23.1493 40.7971C23.6194 40.4209 24.0894 40.0447 24.5594 39.5745C24.8415 39.2923 25.4055 39.3864 25.5935 39.6685C25.6875 39.8566 25.7815 40.0447 25.7815 40.3268C25.7815 40.5149 24.9355 44.4648 28.2257 46.7219C28.4137 46.816 28.5077 47.0981 28.5077 47.2862C28.6017 50.0135 24.8415 52.1765 20.0471 52.1765ZM12.9025 47.6623C13.2786 49.1671 16.0988 50.7658 20.0471 50.7658C23.9954 50.7658 26.8156 49.1671 27.1916 47.6623C24.9355 45.8755 24.3714 43.4304 24.3714 41.8316C24.2774 41.9256 24.2774 41.9256 24.1834 42.0197C21.7392 43.9006 18.355 43.9006 16.0048 42.0197C15.9108 41.9256 15.9108 41.9256 15.8168 41.8316C15.6288 43.4304 15.1587 45.8755 12.9025 47.6623Z" fill="#C2A74E"/>
<path d="M39.2244 52.1767C39.0364 52.1767 38.8484 52.0826 38.7544 51.9886C36.0282 49.4493 32.5499 48.0387 28.8837 48.0387H28.6016C28.0376 50.4839 24.4653 52.2708 20.047 52.2708C19.6709 52.2708 19.2949 51.9886 19.2949 51.5184C19.2949 51.1422 19.5769 50.766 20.047 50.766C24.2773 50.766 27.1915 48.9791 27.1915 47.2863C27.1915 46.9101 27.4735 46.534 27.9436 46.534H28.8837C32.926 46.534 36.7802 48.1328 39.7885 50.9541C40.0705 51.2363 40.0705 51.7064 39.7885 51.9886C39.6005 52.1766 39.4125 52.1767 39.2244 52.1767Z" fill="#C2A74E"/>
<path d="M0.775554 52.1767C0.587539 52.1767 0.39953 52.0826 0.211516 51.9886C-0.0705053 51.7064 -0.0705053 51.2363 0.211516 50.9541C3.12574 48.1328 7.07403 46.534 11.1163 46.534H12.0564C12.4324 46.534 12.8085 46.8161 12.8085 47.2863C12.8085 48.8851 15.7227 50.766 19.953 50.766C20.329 50.766 20.705 51.0482 20.705 51.5184C20.705 51.8946 20.423 52.2708 19.953 52.2708C15.5347 52.2708 12.0564 50.4839 11.3983 48.0387H11.1163C7.45006 48.0387 3.87778 49.4493 1.24558 51.9886C1.15157 52.1766 0.963568 52.1767 0.775554 52.1767Z" fill="#C2A74E"/>
</svg>
