<svg width="40" height="52" viewBox="0 0 40 52" fill="none" xmlns="http://www.w3.org/2000/svg">
<path d="M21.3402 51.4326H5.2636C4.88082 51.4326 4.49805 51.1454 4.49805 50.6667V48.5606C4.49805 48.1777 4.78513 47.7947 5.2636 47.7947C5.64637 47.7947 6.02915 48.082 6.02915 48.5606V49.9966H21.3402C21.7229 49.9966 22.1057 50.2838 22.1057 50.7625C22.01 51.1454 21.7229 51.4326 21.3402 51.4326Z" fill="#C2A74E"/>
<path d="M5.2636 45.593C4.88082 45.593 4.49805 45.3058 4.49805 44.8272V20.5111C4.49805 20.2239 4.59373 20.0325 4.78512 19.9367C4.9765 19.841 5.2636 19.7453 5.45499 19.841C7.08178 20.4154 9.09134 20.3196 11.388 19.458C16.077 17.6391 19.3306 18.8837 21.4358 19.6496H21.5315C21.8186 19.7453 22.01 20.0325 22.01 20.3197V29.51C22.01 29.8929 21.7229 30.2758 21.2445 30.2758C20.8617 30.2758 20.4789 29.9886 20.4789 29.51V20.894C18.3736 20.1282 15.7899 19.3623 11.8665 20.7983C9.66551 21.6599 7.65594 21.8513 5.93345 21.4684V44.7314C6.02914 45.2101 5.64637 45.593 5.2636 45.593Z" fill="#C2A74E"/>
<path d="M11.0046 32.6692C9.28211 32.6692 7.94238 31.329 7.94238 29.6058V20.8942C7.94238 20.5112 8.22948 20.224 8.61225 20.1283C9.4735 20.0326 10.4304 19.8411 11.4831 19.4582C13.7797 18.5966 15.9807 18.3094 18.0859 18.6923C18.4687 18.788 18.7558 19.0752 18.7558 19.4582V27.2125C18.7558 28.9357 17.4161 30.2759 15.6936 30.2759C15.1194 30.2759 14.5453 30.0845 14.1625 29.7973C13.9711 31.4247 12.6314 32.6692 11.0046 32.6692ZM9.3778 21.5643V29.6058C9.3778 30.4674 10.0477 31.1375 10.9089 31.1375C11.7701 31.1375 12.44 30.4674 12.44 29.6058V27.1168C12.44 26.7339 12.7271 26.3509 13.2056 26.3509C13.5883 26.3509 13.9711 26.6381 13.9711 27.1168C13.9711 27.9784 14.641 28.6485 15.5022 28.6485C16.3634 28.6485 17.0333 27.9784 17.0333 27.1168V20.0325C15.3108 19.8411 13.5883 20.1283 11.7701 20.7984C11.1003 21.1813 10.239 21.3728 9.3778 21.5643Z" fill="#C2A74E"/>
<path d="M13.3017 27.8825C12.9189 27.8825 12.5361 27.5954 12.5361 27.1167V25.2978C12.5361 24.9149 12.8232 24.5319 13.3017 24.5319C13.6845 24.5319 14.0672 24.8191 14.0672 25.2978V27.1167C14.0672 27.5954 13.6845 27.8825 13.3017 27.8825Z" fill="#C2A74E"/>
<path d="M13.3015 20.4152C13.0145 20.4152 12.8231 20.3195 12.6317 20.0323C12.536 19.9366 11.1963 17.4476 13.5886 13.4268C13.78 13.0439 14.2585 12.9482 14.6413 13.1396C15.024 13.3311 15.1197 13.8097 14.9283 14.1926C13.0145 17.4475 13.8757 19.2664 13.9714 19.3622C14.1628 19.7451 14.0671 20.1281 13.6843 20.3196C13.4929 20.3196 13.3972 20.4152 13.3015 20.4152Z" fill="#C2A74E"/>
<path d="M34.6412 51.4326H21.3398C20.957 51.4326 20.5742 51.1454 20.5742 50.6668C20.5742 50.2838 20.8613 49.9009 21.3398 49.9009H33.9713V32.2861C33.9713 31.9032 34.2584 31.5203 34.7369 31.5203C35.1197 31.5203 35.5024 31.8075 35.5024 32.2861V50.6668C35.4067 51.1454 35.024 51.4326 34.6412 51.4326Z" fill="#C2A74E"/>
<path d="M21.3398 33.2437C20.957 33.2437 20.5742 32.9564 20.5742 32.4778V25.4893C20.5742 25.2021 20.7656 24.9149 21.0527 24.8192H21.1484C22.9666 24.149 25.646 23.1917 29.5694 24.6277C31.3876 25.2978 33.0144 25.3936 34.3541 24.9149C34.5455 24.8192 34.8326 24.8192 35.024 25.0107C35.2153 25.1064 35.311 25.3936 35.311 25.585V28.1698C35.311 28.5528 35.024 28.9356 34.5455 28.9356C34.1627 28.9356 33.78 28.6485 33.78 28.1698V26.5423C32.3445 26.8295 30.7177 26.6381 28.8996 25.968C25.7417 24.7234 23.5407 25.3936 21.9139 25.968V32.4778C22.0096 32.9564 21.7225 33.2437 21.3398 33.2437Z" fill="#C2A74E"/>
<path d="M27.4643 25.3935C27.1772 25.3935 26.9859 25.2977 26.7945 25.0105C26.6988 24.9148 26.1246 23.6703 26.6031 21.6599C26.6988 21.277 27.0816 20.9897 27.4643 21.0854C27.8471 21.1812 28.1342 21.5641 28.0385 21.9471C27.6557 23.3831 28.0385 24.1489 28.0385 24.1489C28.2299 24.5318 28.1342 24.9147 27.7514 25.2019C27.7514 25.3934 27.56 25.3935 27.4643 25.3935Z" fill="#C2A74E"/>
<path d="M17.1288 11.4165C17.0331 11.4165 16.8417 11.4165 16.746 11.3208C16.6503 11.2251 15.7891 10.7464 15.5977 9.50185C15.4063 8.44879 15.6934 7.20432 16.5546 5.9598C17.1288 5.0982 17.3202 4.33231 17.2245 3.75792C16.9374 3.08779 16.2675 2.70486 16.2675 2.70486C15.8848 2.51339 15.7891 2.03474 15.9805 1.74755C16.1718 1.36462 16.6503 1.26889 16.9374 1.46036C17.0331 1.46036 18.1814 2.13048 18.4685 3.47073C18.7556 4.52379 18.4685 5.67258 17.6072 6.91711C16.9374 7.87443 16.746 8.64029 16.8417 9.31042C16.9374 9.88481 17.3202 10.172 17.3202 10.172C17.703 10.3634 17.7986 10.8421 17.6072 11.225C17.6072 11.3208 17.3202 11.4165 17.1288 11.4165Z" fill="#C2A74E"/>
<path d="M12.823 11.4166C12.6316 11.4166 12.5359 11.4166 12.3445 11.3208C11.4833 10.7464 10.3349 8.8318 12.1531 5.95983C12.9187 4.81104 12.5359 4.42808 11.9617 3.75795C11.3876 3.08783 10.5263 2.13054 11.1005 0.503085C11.1962 0.120155 11.6746 -0.0713388 12.0574 0.0243936C12.4402 0.120126 12.6316 0.598774 12.5359 0.981703C12.2488 1.74756 12.5359 2.13052 13.1101 2.80064C13.7799 3.5665 14.8325 4.71527 13.4928 6.82139C11.9617 9.11897 13.3015 10.172 13.3015 10.172C13.5885 10.3635 13.6842 10.8421 13.4928 11.2251C13.3014 11.3208 13.0144 11.4166 12.823 11.4166Z" fill="#C2A74E"/>
<path d="M39.2344 51.4328H0.765549C0.382774 51.4328 0 51.1455 0 50.6669C0 50.2839 0.287081 49.901 0.765549 49.901H39.2344C39.6172 49.901 40 50.1882 40 50.6669C40 51.1455 39.6172 51.4328 39.2344 51.4328Z" fill="#C2A74E"/>
<path d="M26.9861 41.285C26.699 41.285 26.4119 41.285 26.1248 41.1893C25.742 41.0936 25.5506 40.7106 25.5506 40.3277C25.5506 40.2319 25.5506 40.0405 25.5506 39.9447C25.5506 39.0831 25.1679 38.2216 24.4023 37.6472C24.2109 37.5514 24.1152 37.36 24.1152 37.0728C24.1152 36.8813 24.2109 36.6898 24.3066 36.4984C24.6894 36.1154 24.8808 35.5411 24.8808 34.9667C24.8808 34.8709 24.8808 34.8709 24.8808 34.7752C24.8808 34.488 24.9765 34.2008 25.2636 34.0094C26.9861 33.1478 29.0913 33.8179 30.0483 35.5411C31.1009 37.36 30.431 39.5618 28.7085 40.6149C28.3258 41.0935 27.6559 41.285 26.9861 41.285ZM25.9334 37.0728C26.6033 37.8387 27.0817 38.7959 27.0817 39.849C27.4645 39.849 27.7516 39.7533 28.1344 39.5618C29.187 38.9874 29.5698 37.5514 28.9956 36.4984C28.5171 35.6368 27.4645 35.2538 26.5076 35.4453C26.4119 36.0197 26.2205 36.5941 25.9334 37.0728Z" fill="#C2A74E"/>
<path d="M26.9855 46.1674C26.3156 46.1674 25.7415 45.9759 25.1673 45.6887C24.3061 45.21 23.7319 44.4442 23.4448 43.5826C23.3491 43.1997 23.5405 42.8167 23.8276 42.721C24.7845 42.3381 25.4544 41.4765 25.5501 40.4234C25.5501 40.232 25.6458 40.0405 25.8372 39.9448C26.0285 39.849 26.2199 39.7533 26.4113 39.849C26.9855 39.9447 27.5596 39.9448 28.0381 39.6576C28.1338 39.6576 28.1338 39.5618 28.2295 39.5618C28.5166 39.3703 28.8037 39.3703 29.0907 39.5618C30.7175 40.7106 31.196 42.8167 30.1434 44.4442C29.6649 45.3058 28.8037 45.8802 27.8467 46.1674C27.6553 46.1674 27.2726 46.1674 26.9855 46.1674ZM25.0716 43.6783C25.263 43.9655 25.5501 44.2527 25.8372 44.4442C26.8898 45.0186 28.3252 44.7314 28.8994 43.5826C29.3778 42.721 29.2821 41.6679 28.6123 40.9021C28.0381 41.1893 27.464 41.285 26.8898 41.285C26.6027 42.2423 25.9329 43.1039 25.0716 43.6783Z" fill="#C2A74E"/>
<path d="M22.775 48.6564C20.7655 48.6564 19.043 47.029 19.043 44.9229C19.043 43.9656 19.4257 43.1039 20.0956 42.3381C20.3827 42.0509 20.7654 42.0509 21.0525 42.2423C21.8181 42.8167 22.9664 43.0082 23.8277 42.6253C24.019 42.5295 24.2104 42.5295 24.4018 42.6253C24.5932 42.721 24.6889 42.9125 24.7846 43.1039C24.976 43.6783 25.3587 44.157 25.8372 44.3484C25.9329 44.3484 25.9329 44.4442 26.0286 44.4442C26.3157 44.5399 26.5071 44.8271 26.4114 45.2101C26.3157 47.1247 24.6889 48.6564 22.775 48.6564ZM20.7654 43.8698C20.5741 44.157 20.4784 44.54 20.4784 44.9229C20.4784 46.1674 21.531 47.1247 22.6793 47.1247C23.6363 47.1247 24.4975 46.4546 24.7846 45.4973C24.3061 45.1143 23.9233 44.7314 23.6363 44.157C22.775 44.4442 21.6267 44.3485 20.7654 43.8698Z" fill="#C2A74E"/>
<path d="M24.9765 37.9344C24.7851 37.9344 24.6894 37.8387 24.498 37.7429C23.7325 37.1685 22.5841 36.9771 21.7229 37.36C21.5315 37.4557 21.3401 37.4557 21.1487 37.36C20.9573 37.2643 20.8616 37.0728 20.7659 36.8813C20.5746 36.3069 20.1918 35.8283 19.7133 35.6368C19.6176 35.6368 19.6176 35.5411 19.5219 35.5411C19.2349 35.4453 19.0435 35.1581 19.1391 34.7752C19.3305 32.8605 20.8617 31.4246 22.8712 31.4246C24.8808 31.4246 26.6033 33.052 26.6033 35.1581C26.6033 36.1154 26.2205 36.9771 25.5506 37.7429C25.3592 37.8387 25.1679 37.9344 24.9765 37.9344ZM22.7755 35.6368C23.4454 35.6368 24.1152 35.8282 24.7851 36.1154C24.9765 35.8282 25.0722 35.4453 25.0722 35.0624C25.0722 33.8178 24.0195 32.8606 22.8712 32.8606C21.9143 32.8606 21.053 33.5307 20.7659 34.488C21.2444 34.8709 21.6272 35.2539 21.9143 35.8282C22.1057 35.7325 22.3927 35.6368 22.7755 35.6368Z" fill="#C2A74E"/>
<path d="M16.8425 40.7106C16.6511 40.7106 16.5554 40.7106 16.4597 40.6148C14.8329 39.466 14.3544 37.3599 15.4071 35.7325C15.8855 34.8709 16.7468 34.2965 17.7037 34.0093C18.6606 33.7221 19.7133 33.9135 20.5745 34.3922C21.4358 34.8709 22.0099 35.6367 22.297 36.4983C22.3927 36.8813 22.2013 37.2642 21.9142 37.36C20.9573 37.7429 20.2874 38.6045 20.1918 39.6575C20.1918 39.849 20.0961 40.0405 19.9047 40.1362C19.7133 40.2319 19.5219 40.3276 19.3305 40.2319C18.7563 40.1362 18.1822 40.2319 17.7037 40.4234C17.608 40.4234 17.608 40.5191 17.5123 40.5191C17.1295 40.7105 16.9382 40.7106 16.8425 40.7106ZM18.565 35.3496C17.7994 35.3496 17.0339 35.7325 16.6511 36.4983C16.1726 37.3599 16.2683 38.413 16.9382 39.1788C17.5123 38.8916 18.0865 38.796 18.6607 38.796C18.9477 37.8386 19.6176 36.9771 20.4788 36.4027C20.2875 36.1155 20.0004 35.8282 19.7133 35.6368C19.3305 35.4453 18.9477 35.3496 18.565 35.3496Z" fill="#C2A74E"/>
<path d="M18.5647 46.1675C17.3207 46.1675 16.0767 45.4974 15.3111 44.2529C14.2585 42.434 14.9284 40.2321 16.6508 39.179C17.5121 38.7003 18.469 38.6047 19.3303 38.7961C19.713 38.8919 19.9044 39.2748 19.9044 39.6577C19.9044 39.7534 19.9044 39.9449 19.9044 40.0406C19.9044 40.9022 20.2872 41.7638 21.0527 42.3382C21.2441 42.4339 21.3398 42.6254 21.3398 42.9126C21.3398 43.104 21.2441 43.2955 21.1484 43.487C20.7657 43.8699 20.5743 44.4443 20.5743 45.0187C20.5743 45.1144 20.5743 45.1145 20.5743 45.2102C20.5743 45.4974 20.4786 45.7846 20.1915 45.9761C19.6173 46.0718 19.0432 46.1675 18.5647 46.1675ZM18.469 40.2321C18.0862 40.2321 17.7992 40.3278 17.4164 40.5193C16.3638 41.0937 15.981 42.5297 16.5551 43.5828C17.0336 44.4444 18.0863 44.8272 19.0432 44.6358C19.0432 44.0614 19.2346 43.487 19.6173 42.9126C18.8518 42.2424 18.469 41.1894 18.469 40.2321Z" fill="#C2A74E"/>
<path d="M21.3398 51.4328C20.957 51.4328 20.5742 51.1456 20.5742 50.6669V47.412C20.5742 47.0291 20.8613 46.6462 21.3398 46.6462C21.7225 46.6462 22.1053 46.9333 22.1053 47.412V50.6669C22.0096 51.1456 21.7225 51.4328 21.3398 51.4328Z" fill="#C2A74E"/>
<path d="M27.4646 22.6173C26.0292 22.6173 24.8809 21.4685 24.8809 20.0325C24.9766 17.8306 26.7947 15.7245 26.8904 15.6288C27.1775 15.3416 27.7517 15.3416 28.0388 15.6288C28.1344 15.7245 29.9526 17.8306 30.0483 20.0325C30.0483 21.4685 28.9 22.6173 27.4646 22.6173ZM27.4646 17.352C26.9861 18.0221 26.412 19.0751 26.3163 20.0325C26.3163 20.6069 26.7947 21.0855 27.4646 21.0855C28.0388 21.0855 28.6129 20.6069 28.6129 19.9368C28.5172 19.0752 27.9431 18.0221 27.4646 17.352Z" fill="#C2A74E"/>
</svg>
