<svg width="20" height="21" viewBox="0 0 20 21" fill="none" xmlns="http://www.w3.org/2000/svg">
<path d="M9.99922 20.3C8.05922 20.3 6.47922 18.72 6.47922 16.78C6.47922 15.14 7.19922 14.28 8.77922 12.82C9.39922 12.26 9.63922 11.78 9.63922 11.32V10.86H9.17922C8.63922 10.86 7.91922 11.4 7.01922 12.44C6.09922 13.52 4.99922 14.02 3.71922 14.02C1.77922 14.02 0.199219 12.44 0.199219 10.5C0.199219 8.56001 1.77922 6.98001 3.71922 6.98001C5.01922 6.98001 6.09922 7.52001 6.97922 8.54001C7.87922 9.56001 8.61922 10.1 9.17922 10.1H9.63922V9.70001C9.63922 9.24001 9.37922 8.76001 8.77922 8.20001L8.19922 7.66001C7.33922 6.86001 6.49922 5.82001 6.49922 4.24001C6.47922 2.28001 8.03922 0.700012 9.99922 0.700012C11.9392 0.700012 13.5192 2.30001 13.5192 4.22001C13.5192 5.52001 12.9792 6.60001 11.9592 7.48001C10.9392 8.38001 10.3992 9.08001 10.3992 9.68001V10.08H10.7992C11.3792 10.08 12.1192 9.54001 12.9992 8.52001C13.8592 7.48001 14.9592 6.96001 16.2592 6.96001C18.2192 6.98001 19.7992 8.54001 19.7992 10.5C19.7992 12.44 18.2192 14.02 16.2792 14.02C14.6792 14.02 13.6992 13.22 12.3192 11.72C11.7592 11.1 11.2792 10.86 10.8192 10.86H10.4192V11.32C10.4192 11.9 10.9392 12.68 11.9792 13.52C13.0192 14.36 13.5392 15.46 13.5392 16.78C13.5192 18.72 11.9592 20.3 9.99922 20.3Z" fill="#C2A74E"/>
</svg>
